<?xml version="1.0" encoding="UTF-8"?>
<svg version="1.1" xmlns="http://www.w3.org/2000/svg" width="1424" height="1182">
<path d="M0 0 C1.73564209 0.57790283 1.73564209 0.57790283 3.50634766 1.16748047 C42.17601292 14.18751501 79.17090576 31.77750818 114 53 C115.09489746 53.65959717 115.09489746 53.65959717 116.21191406 54.33251953 C140.42246785 68.93396808 163.49777376 85.53993302 185.26318359 103.56738281 C187.76234405 105.62882132 190.29045371 107.65416707 192.8125 109.6875 C197.49854708 113.52217817 201.97889912 117.55250388 206.43359375 121.65234375 C208.67558956 123.70324098 210.94791029 125.70477533 213.25 127.6875 C216.39726587 130.41896855 219.32683038 133.30583406 222.24609375 136.27734375 C223.9588984 137.95963073 225.73107445 139.51103759 227.5625 141.0625 C235.94093568 148.29544643 243.89313318 156.30602807 251.0390625 164.7578125 C253.30221051 167.34555544 255.65316806 169.83865901 258.01245117 172.33862305 C263.48738504 178.14080424 268.78165791 183.99406036 273.76953125 190.2265625 C276.42318706 193.52620458 279.14110373 196.76678452 281.875 200 C282.33994873 200.55252441 282.80489746 201.10504883 283.28393555 201.67431641 C286.74639209 205.76636814 289.52478098 208.93279826 294.31640625 211.3828125 C295.15905029 211.82375244 296.00169434 212.26469238 296.86987305 212.71899414 C297.75843994 213.18297607 298.64700684 213.64695801 299.5625 214.125 C317.30253783 223.60507567 317.30253783 223.60507567 321 231 C321.10477607 232.50056092 321.1486759 234.00560276 321.16113281 235.50976562 C321.17074036 236.44413452 321.1803479 237.37850342 321.19024658 238.34118652 C321.19449646 239.35265747 321.19874634 240.36412842 321.203125 241.40625 C321.20882507 242.44189087 321.21452515 243.47753174 321.22039795 244.54455566 C321.22985371 246.73688737 321.23638421 248.92923332 321.24023438 251.12158203 C321.24996026 254.48625208 321.28098679 257.85031665 321.3125 261.21484375 C321.31902779 263.34114219 321.32427914 265.46744502 321.328125 267.59375 C321.3466452 269.11095642 321.3466452 269.11095642 321.36553955 270.65881348 C321.36253845 271.59318237 321.35953735 272.52755127 321.35644531 273.49023438 C321.36009094 274.31471069 321.36373657 275.13918701 321.36749268 275.98864746 C321.24622009 276.6523938 321.12494751 277.31614014 321 278 C317.29995678 280.46669548 315.35628748 280.28451768 310.9375 280.3359375 C310.2389389 280.34449768 309.54037781 280.35305786 308.82064819 280.36187744 C306.54684081 280.38194702 304.27387974 280.3819625 302 280.375 C301.22247375 280.37312683 300.44494751 280.37125366 299.64385986 280.36932373 C280.20423552 280.26744049 263.88198606 275.72473747 245.43774414 269.85498047 C214.28133537 259.97804676 182.35936984 254.79516852 150 250.75 C148.81245117 250.59893799 147.62490234 250.44787598 146.40136719 250.29223633 C122.39424614 247.44624638 98.42409621 246.66570359 74.27832031 246.73925781 C70.49495651 246.75069285 66.7118728 246.74382516 62.9285183 246.73239422 C38.69107297 246.66997483 14.8411313 247.86640557 -9.125 251.6875 C-9.94596161 251.81627533 -10.76692322 251.94505066 -11.61276245 252.07772827 C-61.49774657 259.94737895 -112.78625142 274.44106773 -157.734375 297.80859375 C-163.55321811 300.82991613 -169.46891255 303.65430942 -175.375 306.5 C-177.0458667 307.31198853 -177.0458667 307.31198853 -178.75048828 308.14038086 C-180.30872314 308.89073608 -180.30872314 308.89073608 -181.8984375 309.65625 C-182.83349121 310.10806641 -183.76854492 310.55988281 -184.73193359 311.02539062 C-187 312 -187 312 -189 312 C-189 312.66 -189 313.32 -189 314 C-189.62640381 314.31525635 -190.25280762 314.6305127 -190.89819336 314.95532227 C-213.20778625 326.23659033 -235.45539863 338.26262438 -255.51921463 353.27780634 C-258 355 -258 355 -261.00837326 356.57652515 C-267.07662508 360.12739823 -267.07662508 360.12739823 -270.69254208 365.94619079 C-271.83493175 371.91208518 -271.56391621 377.98741269 -271.45410156 384.03248596 C-271.46060377 386.09952265 -271.47238937 388.16654833 -271.48899364 390.23352855 C-271.51937614 395.906879 -271.47511701 401.57756601 -271.41869426 407.25062668 C-271.37095934 413.37151475 -271.39263194 419.49220049 -271.40602112 425.61320496 C-271.41989776 436.21947954 -271.39068216 446.82482813 -271.33169556 457.43087959 C-271.27008475 468.56274696 -271.23514687 479.69420221 -271.23495483 490.82624626 C-271.23493581 491.51925169 -271.23491678 492.21225712 -271.23489717 492.92626272 C-271.23496621 496.44621229 -271.23555232 499.96616157 -271.23636544 503.48611104 C-271.24147098 528.41677006 -271.19403039 553.34707159 -271.11279297 578.27758789 C-271.09317496 584.31622267 -271.07361369 590.35485762 -271.05438232 596.39349365 C-271.05199635 597.14243939 -271.04961037 597.89138513 -271.04715209 598.6630262 C-270.99223163 616.04526064 -270.95832073 633.42751831 -270.93017578 650.80981445 C-270.92895927 651.55411777 -270.92774276 652.29842109 -270.92648938 653.06527906 C-270.89880491 670.07118012 -270.87707367 687.07708159 -270.86282349 704.08299923 C-270.86191159 705.15635403 -270.86191159 705.15635403 -270.86098127 706.25139277 C-270.85552046 712.68996827 -270.85009278 719.12854376 -270.84565616 725.56712007 C-270.83402362 742.288673 -270.80464984 759.00998009 -270.74367148 775.73142927 C-270.70567452 786.22654848 -270.68104593 796.72165039 -270.66632265 807.21683193 C-270.6571682 813.26844579 -270.64117956 819.31984982 -270.60730171 825.37137985 C-270.57626784 830.91887199 -270.56387503 836.46609189 -270.56578398 842.01366758 C-270.56316398 844.0130189 -270.55377373 846.01237621 -270.53665781 848.01165599 C-270.29436806 877.51209098 -280.60648192 899.85580027 -301 921 C-301.59296875 921.64453125 -302.1859375 922.2890625 -302.796875 922.953125 C-335.81802673 957.9359293 -392.40985711 975.17943061 -438.98120117 977.12451172 C-492.28656969 978.52168947 -548.13232191 963.42772094 -589 928 C-589.95003906 927.19433594 -590.90007812 926.38867188 -591.87890625 925.55859375 C-606.34691848 913.01127874 -618.75269694 896.64173454 -624 878 C-624 877.34 -624 876.68 -624 876 C-624.91523437 876.03480469 -625.83046875 876.06960938 -626.7734375 876.10546875 C-628.55621094 876.14607422 -628.55621094 876.14607422 -630.375 876.1875 C-631.55835938 876.22230469 -632.74171875 876.25710938 -633.9609375 876.29296875 C-634.96382812 876.19628906 -635.96671875 876.09960938 -637 876 C-639.6377686 872.04334709 -639.37893567 868.55939985 -639.44140625 863.95703125 C-639.45771591 863.0295961 -639.47402557 862.10216095 -639.49082947 861.1466217 C-639.53318473 858.03511682 -639.55125328 854.92426848 -639.5625 851.8125 C-639.57192627 850.16353729 -639.57192627 850.16353729 -639.58154297 848.48126221 C-639.61914552 833.04071404 -638.40894176 818.28907606 -635.99884033 803.05764771 C-630.51675348 768.0814238 -631.46937378 732.97835365 -631.8203125 697.67138672 C-631.8650585 693.04916849 -631.90813069 688.42693971 -631.94921875 683.8046875 C-631.95944628 682.67244499 -631.96967381 681.54020248 -631.98021126 680.3736496 C-632.16929361 657.2021754 -631.35839032 634.12884029 -630 611 C-629.95946125 610.30352608 -629.9189225 609.60705215 -629.8771553 608.88947296 C-629.4067535 600.8767099 -628.83593131 592.87516092 -628.1875 584.875 C-628.10351959 583.81432312 -628.01953918 582.75364624 -627.93301392 581.66082764 C-622.22331529 509.90421489 -610.84693205 438.85492899 -591.6875 369.4375 C-591.36798874 368.27850693 -591.36798874 368.27850693 -591.04202271 367.09609985 C-590.43261017 364.89470672 -589.81722245 362.69508887 -589.19921875 360.49609375 C-588.84690186 359.23982178 -588.49458496 357.9835498 -588.1315918 356.68920898 C-586.91231504 352.71413001 -585.4963382 348.87825337 -584 345 C-585.4540625 344.690625 -585.4540625 344.690625 -586.9375 344.375 C-595.97368744 341.77228475 -601.93464607 335.5980309 -607 328 C-609.47654311 327.54513501 -609.47654311 327.54513501 -612.42598438 327.62361908 C-613.58540352 327.61601264 -614.74482265 327.60840619 -615.9393757 327.60056925 C-617.22425919 327.60746318 -618.50914268 327.61435712 -619.83296204 327.62145996 C-621.20311016 327.61817187 -622.57325564 327.61356016 -623.94339532 327.6077323 C-627.7219786 327.59546672 -631.50033895 327.60191163 -635.2789222 327.61123729 C-639.34940192 327.61801088 -643.41983949 327.60751241 -647.49031067 327.59895325 C-654.55007466 327.58636194 -661.6097774 327.58442244 -668.66954994 327.58930969 C-678.89104038 327.59610833 -689.11243825 327.58361582 -699.33391216 327.56580251 C-715.93492501 327.53712024 -732.53592789 327.51963229 -749.13696289 327.51123047 C-750.62844933 327.5104697 -750.62844933 327.5104697 -752.15006682 327.50969356 C-759.20421108 327.50616803 -766.25835551 327.50303937 -773.3125 327.5 C-781.35131851 327.49653388 -789.39013687 327.49288372 -797.42895508 327.48876953 C-798.41873591 327.48826692 -799.40851675 327.4877643 -800.42829094 327.48724645 C-816.95260741 327.4784916 -833.47688972 327.45802946 -850.00118321 327.42928743 C-860.19070696 327.4121313 -870.38013388 327.40551198 -880.56967016 327.41259348 C-887.56121136 327.41678384 -894.55269171 327.41038753 -901.54421876 327.39579475 C-905.57414914 327.38776307 -909.60392847 327.38458085 -913.63385773 327.39461708 C-917.33108739 327.40374731 -921.02803762 327.39888155 -924.72524371 327.38340265 C-926.67997986 327.37875461 -928.63473441 327.38873872 -930.58944684 327.39943075 C-941.72030974 327.32816909 -952.28100534 325.5545948 -962.1875 320.3125 C-963.19574829 319.79357178 -963.19574829 319.79357178 -964.22436523 319.26416016 C-970.05674771 316.16485354 -975.06484278 312.38476794 -980 308 C-980.63164063 307.48695313 -981.26328125 306.97390625 -981.9140625 306.4453125 C-994.89818945 295.86353503 -1004.30461785 280.69891428 -1012 266 C-1012.33241699 265.36787598 -1012.66483398 264.73575195 -1013.00732422 264.08447266 C-1022.10957697 246.49433654 -1027.68499142 227.48377926 -1031 208 C-1031.17571533 206.98389648 -1031.17571533 206.98389648 -1031.35498047 205.94726562 C-1037.29817818 169.88185784 -1030.94041736 132.10984668 -1016 99 C-1015.67773438 98.28376465 -1015.35546875 97.5675293 -1015.0234375 96.82958984 C-1002.15492678 68.7189559 -981.61613324 43.20141808 -952 32 C-945.98712126 30.32267039 -940.32291709 29.71560095 -934.1001358 29.77460003 C-933.24728076 29.77449872 -932.39442571 29.77439741 -931.51572657 29.77429304 C-928.66846049 29.77635115 -925.82146075 29.79273063 -922.97424316 29.80900574 C-920.90794333 29.81331392 -918.84164141 29.81670104 -916.77533865 29.81924802 C-912.2880164 29.8267011 -907.80077371 29.84050907 -903.31348419 29.85917091 C-896.01151328 29.88945813 -888.70954883 29.90582067 -881.40753174 29.92028809 C-873.54230992 29.93665619 -865.67709634 29.95422284 -857.8118906 29.97703111 C-839.01837081 30.03139438 -820.22494019 30.06269367 -801.43134712 30.07617453 C-799.29626565 30.07771725 -797.16118424 30.07933524 -795.02610284 30.08097854 C-788.53772115 30.08596908 -782.04933936 30.090799 -775.56095743 30.09546343 C-759.96641724 30.10669982 -744.37187947 30.11962427 -728.77734375 30.13598633 C-728.0317016 30.13675713 -727.28605945 30.13752792 -726.51782208 30.13832208 C-702.34876221 30.16357726 -678.17995436 30.22596831 -654.01101816 30.30551637 C-629.14236882 30.38712817 -604.27399153 30.42550299 -579.40520435 30.41197475 C-575.88941431 30.4100949 -572.37362425 30.40873567 -568.85783386 30.40770912 C-567.82001859 30.40738865 -567.82001859 30.40738865 -566.76123736 30.4070617 C-555.65052005 30.40495064 -544.54043582 30.44857906 -533.4299072 30.50993669 C-522.25198392 30.57076828 -511.07477852 30.58332394 -499.89666945 30.55032172 C-493.84631969 30.53390488 -487.79792548 30.53840892 -481.74782562 30.60013008 C-476.19984113 30.65628066 -470.65523093 30.65160289 -465.10723132 30.60017888 C-463.10919261 30.59212016 -461.11091346 30.60569642 -459.11322719 30.64407863 C-444.47954333 30.90765659 -436.74868132 27.34670779 -425.9200446 17.59744672 C-411.87310485 5.91061518 -390.780164 -2.0497749 -372.53515625 -0.75390625 C-360.34059476 0.74227773 -350.53119216 3.90058373 -342.6171875 13.71484375 C-340 17.4576049 -340 17.4576049 -340 20 C-338.87078125 19.43454468 -338.87078125 19.43454468 -337.71875 18.85766602 C-321.12154044 10.58801571 -304.57398027 3.01169036 -287 -3 C-286.01676758 -3.34224609 -285.03353516 -3.68449219 -284.02050781 -4.03710938 C-196.39287462 -34.31622023 -98.61468498 -31.38117712 0 0 Z M-142 123 C-142 123.33 -142 123.66 -142 124 C-133.67784275 123.51478462 -125.3663851 122.96997737 -117.05859375 122.28125 C-93.70391894 120.36542608 -70.4293463 119.35151788 -47 119 C-47 118.67 -47 118.34 -47 118 C-78.9801996 117.70105516 -110.26748266 118.5639372 -142 123 Z M-149 124 C-149 124.33 -149 124.66 -149 125 C-146.69 125 -144.38 125 -142 125 C-142 124.67 -142 124.34 -142 124 C-144.31 124 -146.62 124 -149 124 Z M-161.7890625 126.2421875 C-163.06007813 126.50386719 -164.33109375 126.76554688 -165.640625 127.03515625 C-166.29482422 127.17324707 -166.94902344 127.31133789 -167.62304688 127.45361328 C-169.62460548 127.87491696 -171.62843291 128.28376077 -173.6328125 128.69140625 C-181.07669278 130.08872546 -181.07669278 130.08872546 -188 133 C-179.68932463 132.27293095 -171.59790814 130.61046563 -163.4375 128.9375 C-162.03327619 128.65263437 -160.62897979 128.36812634 -159.22460938 128.08398438 C-155.81555975 127.39344219 -152.40751693 126.69807102 -149 126 C-149 125.67 -149 125.34 -149 125 C-153.45338304 124.86576533 -157.42931923 125.34379042 -161.7890625 126.2421875 Z M-192 133 C-188 134 -188 134 -188 134 Z M-203 136 C-198.99799622 137.60080151 -195.95443764 136.29279692 -192 135 C-196.00200378 133.39919849 -199.04556236 134.70720308 -203 136 Z M-207 137 C-203 138 -203 138 -203 138 Z " fill="#95C8F3" transform="translate(1081,102)"/>
<path d="M0 0 C0.73897522 0.10654907 1.47795044 0.21309814 2.23931885 0.32287598 C77.00087855 11.10996151 148.89090397 34.89386491 265 92 C267.04286586 93.14992238 269.08583883 94.29965451 271.12890625 95.44921875 C275.04439427 97.6557301 278.95576558 99.86924836 282.86328125 102.08984375 C287.55902383 104.75657268 292.27393116 107.38744363 297 110 C296.58637207 109.44538086 296.17274414 108.89076172 295.74658203 108.31933594 C293.86948392 105.79861615 291.99720181 103.27435822 290.125 100.75 C289.14853516 99.44095703 289.14853516 99.44095703 288.15234375 98.10546875 C287.52714844 97.26113281 286.90195313 96.41679687 286.2578125 95.546875 C285.6817627 94.77182617 285.10571289 93.99677734 284.51220703 93.19824219 C283.12908058 91.1876399 282.02576768 89.21002307 281 87 C285.90603124 88.4318678 289.97511609 90.49868905 294.3125 93.125 C295.29500732 93.71680054 295.29500732 93.71680054 296.29736328 94.32055664 C309.11788249 102.23576499 309.11788249 102.23576499 312 108 C312.10477607 109.50056092 312.1486759 111.00560276 312.16113281 112.50976562 C312.17074036 113.44413452 312.1803479 114.37850342 312.19024658 115.34118652 C312.19449646 116.35265747 312.19874634 117.36412842 312.203125 118.40625 C312.20882507 119.44189087 312.21452515 120.47753174 312.22039795 121.54455566 C312.22985371 123.73688737 312.23638421 125.92923332 312.24023438 128.12158203 C312.24996026 131.48625208 312.28098679 134.85031665 312.3125 138.21484375 C312.31902779 140.34114219 312.32427914 142.46744502 312.328125 144.59375 C312.3404718 145.60522095 312.3528186 146.61669189 312.36553955 147.65881348 C312.36253845 148.59318237 312.35953735 149.52755127 312.35644531 150.49023438 C312.36009094 151.31471069 312.36373657 152.13918701 312.36749268 152.98864746 C312.1855838 153.98426697 312.1855838 153.98426697 312 155 C308.29995678 157.46669548 306.35628748 157.28451768 301.9375 157.3359375 C301.2389389 157.34449768 300.54037781 157.35305786 299.82064819 157.36187744 C297.54684081 157.38194702 295.27387974 157.3819625 293 157.375 C291.83371063 157.37219025 291.83371063 157.37219025 290.64385986 157.36932373 C271.20423552 157.26744049 254.88198606 152.72473747 236.43774414 146.85498047 C205.28133537 136.97804676 173.35936984 131.79516852 141 127.75 C139.81245117 127.59893799 138.62490234 127.44787598 137.40136719 127.29223633 C113.39424614 124.44624638 89.42409621 123.66570359 65.27832031 123.73925781 C61.49495651 123.75069285 57.7118728 123.74382516 53.9285183 123.73239422 C29.69107297 123.66997483 5.8411313 124.86640557 -18.125 128.6875 C-18.94596161 128.81627533 -19.76692322 128.94505066 -20.61276245 129.07772827 C-70.49774657 136.94737895 -121.78625142 151.44106773 -166.734375 174.80859375 C-172.55321811 177.82991613 -178.46891255 180.65430942 -184.375 183.5 C-185.48891113 184.04132568 -186.60282227 184.58265137 -187.75048828 185.14038086 C-189.30872314 185.89073608 -189.30872314 185.89073608 -190.8984375 186.65625 C-191.83349121 187.10806641 -192.76854492 187.55988281 -193.73193359 188.02539062 C-196 189 -196 189 -198 189 C-198 189.66 -198 190.32 -198 191 C-198.62640381 191.31525635 -199.25280762 191.6305127 -199.89819336 191.95532227 C-222.20778625 203.23659033 -244.45539863 215.26262438 -264.51921463 230.27780634 C-267 232 -267 232 -270.00837326 233.57652515 C-276.07662508 237.12739823 -276.07662508 237.12739823 -279.69254208 242.94619079 C-280.83493175 248.91208518 -280.56391621 254.98741269 -280.45410156 261.03248596 C-280.46060377 263.09952265 -280.47238937 265.16654833 -280.48899364 267.23352855 C-280.51937614 272.906879 -280.47511701 278.57756601 -280.41869426 284.25062668 C-280.37095934 290.37151475 -280.39263194 296.49220049 -280.40602112 302.61320496 C-280.41989776 313.21947954 -280.39068216 323.82482813 -280.33169556 334.43087959 C-280.27008475 345.56274696 -280.23514687 356.69420221 -280.23495483 367.82624626 C-280.23493581 368.51925169 -280.23491678 369.21225712 -280.23489717 369.92626272 C-280.23496621 373.44621229 -280.23555232 376.96616157 -280.23636544 380.48611104 C-280.24147098 405.41677006 -280.19403039 430.34707159 -280.11279297 455.27758789 C-280.09317496 461.31622267 -280.07361369 467.35485762 -280.05438232 473.39349365 C-280.05199635 474.14243939 -280.04961037 474.89138513 -280.04715209 475.6630262 C-279.99223163 493.04526064 -279.95832073 510.42751831 -279.93017578 527.80981445 C-279.92895927 528.55411777 -279.92774276 529.29842109 -279.92648938 530.06527906 C-279.89880491 547.07118012 -279.87707367 564.07708159 -279.86282349 581.08299923 C-279.86191159 582.15635403 -279.86191159 582.15635403 -279.86098127 583.25139277 C-279.85552046 589.68996827 -279.85009278 596.12854376 -279.84565616 602.56712007 C-279.83402362 619.288673 -279.80464984 636.00998009 -279.74367148 652.73142927 C-279.70567452 663.22654848 -279.68104593 673.72165039 -279.66632265 684.21683193 C-279.6571682 690.26844579 -279.64117956 696.31984982 -279.60730171 702.37137985 C-279.57626784 707.91887199 -279.56387503 713.46609189 -279.56578398 719.01366758 C-279.56316398 721.0130189 -279.55377373 723.01237621 -279.53665781 725.01165599 C-279.29436806 754.51209098 -289.60648192 776.85580027 -310 798 C-310.88945313 798.96679688 -310.88945313 798.96679688 -311.796875 799.953125 C-344.81802673 834.9359293 -401.40985711 852.17943061 -447.98120117 854.12451172 C-501.28656969 855.52168947 -557.13232191 840.42772094 -598 805 C-598.95003906 804.19433594 -599.90007812 803.38867188 -600.87890625 802.55859375 C-615.34691848 790.01127874 -627.75269694 773.64173454 -633 755 C-633 754.34 -633 753.68 -633 753 C-633.91523437 753.03480469 -634.83046875 753.06960938 -635.7734375 753.10546875 C-637.55621094 753.14607422 -637.55621094 753.14607422 -639.375 753.1875 C-640.55835938 753.22230469 -641.74171875 753.25710938 -642.9609375 753.29296875 C-644.46527344 753.14794922 -644.46527344 753.14794922 -646 753 C-648.63777027 749.04334459 -648.37897572 745.55937753 -648.44140625 740.95703125 C-648.45771591 740.02456573 -648.47402557 739.09210022 -648.49082947 738.13137817 C-648.53294735 735.02495766 -648.55116509 731.91918014 -648.5625 728.8125 C-648.56878418 727.75008087 -648.57506836 726.68766174 -648.58154297 725.5930481 C-648.65027779 698.46275518 -644.96360146 671.79095086 -641 645 C-640.67 645 -640.34 645 -640 645 C-639.95210831 645.84667236 -639.90421661 646.69334473 -639.85487366 647.56567383 C-639.40168939 655.56892203 -638.94589262 663.57201634 -638.48720646 671.57495117 C-638.25151793 675.68872247 -638.0168179 679.80254508 -637.78442383 683.91650391 C-637.5598547 687.89128181 -637.33262772 691.86589988 -637.10360527 695.84042358 C-637.01695741 697.35210849 -636.9312458 698.86384737 -636.84651375 700.37564087 C-636.24428457 711.21737654 -636.24428457 711.21737654 -635 722 C-634.4738208 720.3603125 -634.4738208 720.3603125 -633.93701172 718.6875 C-617.01491505 666.02892581 -598.74162057 613.88900351 -577 563 C-576.47600283 561.76923612 -575.95207905 560.53844099 -575.42822266 559.30761719 C-556.97474621 516.00705984 -537.05029297 473.06197125 -514 432 C-513.39430176 430.91750977 -512.78860352 429.83501953 -512.16455078 428.71972656 C-499.53363087 406.20194377 -485.9885379 384.36882295 -471.6875 362.875 C-471.22913757 362.18548248 -470.77077515 361.49596497 -470.29852295 360.78555298 C-462.204472 348.62776157 -453.85702421 336.66406544 -445.0625 325 C-444.56435791 324.33830811 -444.06621582 323.67661621 -443.55297852 322.99487305 C-435.84159679 312.78572982 -427.92150685 302.79747255 -419.60546875 293.07421875 C-417.24135813 290.30300845 -414.96156042 287.47072811 -412.6875 284.625 C-408.402493 279.35173913 -403.80695987 274.40618061 -399.13549805 269.47705078 C-396.26984755 266.45103541 -393.46592538 263.39927031 -390.75390625 260.234375 C-386.55693492 255.40470323 -382.04397114 250.89366565 -377.51196289 246.3815918 C-376.06475615 244.93974779 -374.62297974 243.49262884 -373.18164062 242.04492188 C-368.50784371 237.36777069 -363.77623843 232.81249273 -358.75415039 228.5090332 C-356.16622963 226.282737 -353.68546556 223.95177631 -351.1875 221.625 C-345.64350308 216.51070231 -339.90333408 211.69710479 -334 207 C-333.48775879 206.58814453 -332.97551758 206.17628906 -332.44775391 205.75195312 C-260.93869234 148.26808979 -171.40383892 107.09088397 -22 77 C-20.74429199 76.84901855 -19.48858398 76.69803711 -18.19482422 76.54248047 C27.80409724 71.22763562 76.01189081 72.12155258 122 77 C123.28919342 77.13435455 123.28919342 77.13435455 124.60443115 77.27142334 C181.95856998 83.26761486 236.69694965 94.47381788 290 117 C270.25807596 105.81858055 250.26379497 95.20406246 230 85 C228.29239502 84.13810059 228.29239502 84.13810059 226.55029297 83.25878906 C196.318235 68.09494616 164.94775192 55.07505203 133 44 C131.70396058 43.54548646 130.4080647 43.09056342 129.11230469 42.63525391 C107.36030313 35.01262197 85.35237224 28.61482132 63 23 C62.32022095 22.82919922 61.64044189 22.65839844 60.94006348 22.48242188 C12.50318481 10.38284035 -38.99125142 3.13393975 -89 5 C-90.25474121 5.04640625 -91.50948242 5.0928125 -92.80224609 5.140625 C-163.59941328 7.91645804 -230.52300612 24.35627812 -294 56 C-294.79486816 56.39541992 -295.58973633 56.79083984 -296.40869141 57.19824219 C-326.60665687 72.35407602 -354.08934465 92.45483383 -380 114 C-380.62181152 114.51594727 -381.24362305 115.03189453 -381.88427734 115.56347656 C-389.12306385 121.59420322 -395.98122455 127.82830306 -402.56640625 134.56640625 C-404.58389363 136.58389363 -406.62124299 138.42935728 -408.8125 140.25 C-414.80865851 145.37197524 -420.00234894 151.36231938 -425.32080078 157.16796875 C-426.81134104 158.79417028 -428.30843279 160.41393154 -429.80859375 162.03125 C-434.56646625 167.19736429 -439.12803511 172.47707431 -443.53515625 177.9453125 C-445.34085175 180.1831158 -447.15979312 182.40481899 -448.99609375 184.6171875 C-475.48999541 216.64477886 -498.0168152 252.45632004 -517.47119141 289.12304688 C-518.51426273 291.08592654 -519.56369795 293.04543439 -520.61865234 295.00195312 C-531.14826913 314.54423403 -540.26456715 334.60441067 -549 355 C-549.51691406 356.2065625 -550.03382813 357.413125 -550.56640625 358.65625 C-587.09242273 444.64665393 -608.87443044 536.15706341 -626 645 C-626.33 645 -626.66 645 -627 645 C-626.49225282 630.92227866 -624.4968243 617.10911935 -622.4375 603.1875 C-622.2601532 601.97992035 -622.0828064 600.7723407 -621.90008545 599.52816772 C-608.88828436 511.26117859 -587.29318206 423.61306283 -508.58642578 254.62597656 C-507.03212064 252.0531686 -505.50971441 249.46410034 -503.99609375 246.8671875 C-484.83157884 214.13417058 -461.76283534 183.50610666 -436.23046875 155.4765625 C-435.01131468 154.12289581 -433.79861061 152.76285554 -432.61938477 151.37426758 C-427.45246584 145.32325414 -421.8632279 139.71129666 -416.23022461 134.09985352 C-414.56573723 132.4407268 -412.90666553 130.77631949 -411.24804688 129.11132812 C-405.67110962 123.530587 -400.02637063 118.0983248 -394 113 C-392.91647912 112.05117758 -391.83439972 111.10070602 -390.75390625 110.1484375 C-381.80965121 102.34742265 -372.50049471 95.10807509 -363 88 C-362.3591748 87.51644043 -361.71834961 87.03288086 -361.05810547 86.53466797 C-351.33899358 79.20546012 -341.31515249 72.46097531 -331 66 C-330.40848145 65.62697754 -329.81696289 65.25395508 -329.20751953 64.86962891 C-268.23428894 26.61499956 -196.58602253 4.32891108 -125 -2 C-123.46811035 -2.15227051 -123.46811035 -2.15227051 -121.90527344 -2.30761719 C-81.62132784 -6.25019538 -40.05284064 -5.90901433 0 0 Z " fill="#155387" transform="translate(1090,225)"/>
<path d="M0 0 C3.10519215 3.30552713 5.6953125 6.08549578 5.6953125 10.8046875 C4.65117188 11.36414063 3.60703125 11.92359375 2.53125 12.5 C-25.61397778 27.75723199 -52.32322544 45.88147434 -75.8984375 67.609375 C-77.24152991 68.83472879 -78.59308358 70.05150462 -79.97436523 71.23364258 C-85.54145875 76.003718 -90.7531662 81.09995429 -95.9230957 86.29272461 C-97.36493971 87.73993135 -98.81205866 89.18170776 -100.25976562 90.62304688 C-105.48738403 95.84663672 -110.52073211 101.17154654 -115.3046875 106.8046875 C-116.1503125 107.76890625 -116.9959375 108.733125 -117.8671875 109.7265625 C-126.18428957 119.37653349 -133.75243454 129.55108992 -141.3046875 139.8046875 C-141.88041504 140.58038086 -142.45614258 141.35607422 -143.04931641 142.15527344 C-151.36857549 153.3716547 -159.03697643 164.88150315 -166.3046875 176.8046875 C-166.80403809 177.6179248 -167.30338867 178.43116211 -167.81787109 179.26904297 C-188.53953009 213.13933205 -205.5422667 248.60717261 -219.9921875 285.5546875 C-220.33275177 286.42423065 -220.67331604 287.2937738 -221.02420044 288.18966675 C-224.83683199 297.96191951 -228.42616329 307.70994989 -231.3046875 317.8046875 C-231.9646875 317.8046875 -232.6246875 317.8046875 -233.3046875 317.8046875 C-233.46904297 318.64 -233.46904297 318.64 -233.63671875 319.4921875 C-234.74743998 324.83809781 -236.27694276 329.73532566 -238.3046875 334.8046875 C-248.73106676 332.58630893 -255.5146081 326.48980659 -261.3046875 317.8046875 C-263.78123061 317.34982251 -263.78123061 317.34982251 -266.73067188 317.42830658 C-267.89009102 317.42070014 -269.04951015 317.41309369 -270.2440632 317.40525675 C-271.52894669 317.41215068 -272.81383018 317.41904462 -274.13764954 317.42614746 C-275.50779766 317.42285937 -276.87794314 317.41824766 -278.24808282 317.4124198 C-282.0266661 317.40015422 -285.80502645 317.40659913 -289.5836097 317.41592479 C-293.65408942 317.42269838 -297.72452699 317.41219991 -301.79499817 317.40364075 C-308.85476216 317.39104944 -315.9144649 317.38910994 -322.97423744 317.39399719 C-333.19572788 317.40079583 -343.41712575 317.38830332 -353.63859966 317.37049001 C-370.23961251 317.34180774 -386.84061539 317.32431979 -403.44165039 317.31591797 C-404.93313683 317.3151572 -404.93313683 317.3151572 -406.45475432 317.31438106 C-413.50889858 317.31085553 -420.56304301 317.30772687 -427.6171875 317.3046875 C-435.65600601 317.30122138 -443.69482437 317.29757122 -451.73364258 317.29345703 C-452.72342341 317.29295442 -453.71320425 317.2924518 -454.73297844 317.29193395 C-471.25729491 317.2831791 -487.78157722 317.26271696 -504.30587071 317.23397493 C-514.49539446 317.2168188 -524.68482138 317.21019948 -534.87435766 317.21728098 C-541.86589886 317.22147134 -548.85737921 317.21507503 -555.84890626 317.20048225 C-559.87883664 317.19245057 -563.90861597 317.18926835 -567.93854523 317.19930458 C-571.63577489 317.20843481 -575.33272512 317.20356905 -579.02993121 317.18809015 C-580.98466736 317.18344211 -582.93942191 317.19342622 -584.89413434 317.20411825 C-596.02499724 317.13285659 -606.58569284 315.3592823 -616.4921875 310.1171875 C-617.50043579 309.59825928 -617.50043579 309.59825928 -618.52905273 309.06884766 C-624.36143521 305.96954104 -629.36953028 302.18945544 -634.3046875 297.8046875 C-634.93632813 297.29164063 -635.56796875 296.77859375 -636.21875 296.25 C-649.20287695 285.66822253 -658.60930535 270.50360178 -666.3046875 255.8046875 C-666.63710449 255.17256348 -666.96952148 254.54043945 -667.31201172 253.88916016 C-676.41426447 236.29902404 -681.98967892 217.28846676 -685.3046875 197.8046875 C-685.48040283 196.78858398 -685.48040283 196.78858398 -685.65966797 195.75195312 C-691.60286568 159.68654534 -685.24510486 121.91453418 -670.3046875 88.8046875 C-669.98242188 88.08845215 -669.66015625 87.3722168 -669.328125 86.63427734 C-656.45961428 58.5236434 -635.92082074 33.00610558 -606.3046875 21.8046875 C-600.29180876 20.12735789 -594.62760459 19.52028845 -588.4048233 19.57928753 C-587.55196826 19.57918622 -586.69911321 19.57908491 -585.82041407 19.57898054 C-582.97314799 19.58103865 -580.12614825 19.59741813 -577.27893066 19.61369324 C-575.21263083 19.61800142 -573.14632891 19.62138854 -571.08002615 19.62393552 C-566.5927039 19.6313886 -562.10546121 19.64519657 -557.61817169 19.66385841 C-550.31620078 19.69414563 -543.01423633 19.71050817 -535.71221924 19.72497559 C-527.84699742 19.74134369 -519.98178384 19.75891034 -512.1165781 19.78171861 C-493.32305831 19.83608188 -474.52962769 19.86738117 -455.73603462 19.88086203 C-453.60095315 19.88240475 -451.46587174 19.88402274 -449.33079034 19.88566604 C-442.84240865 19.89065658 -436.35402686 19.8954865 -429.86564493 19.90015093 C-414.27110474 19.91138732 -398.67656697 19.92431177 -383.08203125 19.94067383 C-382.3363891 19.94144463 -381.59074695 19.94221542 -380.82250958 19.94300958 C-356.65344971 19.96826476 -332.48464186 20.03065581 -308.31570566 20.11020387 C-283.44705632 20.19181567 -258.57867903 20.23019049 -233.70989185 20.21666225 C-230.19410181 20.2147824 -226.67831175 20.21342317 -223.16252136 20.21239662 C-222.12470609 20.21207615 -222.12470609 20.21207615 -221.06592486 20.2117492 C-209.95520755 20.20963814 -198.84512332 20.25326656 -187.7345947 20.31462419 C-176.55667142 20.37545578 -165.37946602 20.38801144 -154.20135695 20.35500922 C-148.15100719 20.33859238 -142.10261298 20.34309642 -136.05251312 20.40481758 C-130.50452863 20.46096816 -124.95991843 20.45629039 -119.41191882 20.40486638 C-117.41388011 20.39680766 -115.41560096 20.41038392 -113.41791469 20.44876613 C-98.78423083 20.71234409 -91.05336882 17.15139529 -80.2247321 7.40213422 C-59.51890158 -9.82478904 -21.72165133 -20.49046462 0 0 Z " fill="#3EA0F4" transform="translate(735.3046875,112.1953125)"/>
<path d="M0 0 C78.44825423 -2.05317132 157.33132361 16.14509073 256.68017578 53.06640625 C257.81293945 53.5351416 258.94570312 54.00387695 260.11279297 54.48681641 C300.91457287 71.47318716 340.24987832 91.26354408 378.68017578 113.06640625 C374.99212523 114.29575643 374.33524205 113.73416692 370.89501953 112.14453125 C369.90727539 111.70141602 368.91953125 111.25830078 367.90185547 110.80175781 C366.81807617 110.3115918 365.73429687 109.82142578 364.61767578 109.31640625 C339.24025853 98.25004733 312.78387703 90.60356108 285.68017578 85.06640625 C284.00955078 84.72319336 284.00955078 84.72319336 282.30517578 84.37304688 C250.19375215 77.91668163 217.31817916 74.53723349 184.68017578 72.06640625 C183.49246582 71.97069336 182.30475586 71.87498047 181.08105469 71.77636719 C166.05613097 70.7152474 150.98512808 70.82056091 135.93017578 70.81640625 C135.19642101 70.81596439 134.46266624 70.81552254 133.70667648 70.81506729 C110.57686133 70.80777272 87.66284449 71.23822104 64.68017578 74.06640625 C63.97014404 74.15126282 63.2601123 74.23611938 62.52856445 74.32354736 C-3.88412985 82.26644069 -67.05736785 102.03023562 -127.38574219 130.67724609 C-130.19163009 132.00571191 -133.00590673 133.3142681 -135.82373047 134.6171875 C-147.67816612 140.12958206 -159.18980704 146.15787506 -170.59667969 152.54296875 C-172.39256572 153.54766024 -174.19102343 154.54777048 -175.9921875 155.54296875 C-202.07186906 169.95301625 -226.45785172 186.97741624 -249.31982422 206.06640625 C-249.90103027 206.54851562 -250.48223633 207.030625 -251.08105469 207.52734375 C-258.54133144 213.71965142 -265.76398466 220.1285145 -272.86669922 226.7265625 C-274.25668499 228.00818916 -275.66291258 229.2721333 -277.06982422 230.53515625 C-283.6117517 236.42289099 -289.89893823 242.54028217 -296.13232422 248.75390625 C-296.9329126 249.54990234 -297.73350098 250.34589844 -298.55834961 251.16601562 C-302.78313368 255.40180288 -306.84744942 259.71579118 -310.74926758 264.25073242 C-313.00144494 266.85440769 -315.34837387 269.35981917 -317.69482422 271.87890625 C-321.90935648 276.44590836 -325.92279035 281.12919987 -329.81982422 285.97265625 C-331.71887069 288.32272625 -333.63441118 290.65284247 -335.56982422 292.97265625 C-342.93851735 301.8159072 -350.05299953 310.79083143 -356.85742188 320.07568359 C-358.26590008 321.993001 -359.68831482 323.8992426 -361.11279297 325.8046875 C-389.44377527 364.04650813 -414.02633675 405.07186157 -436.31982422 447.06640625 C-436.81546875 447.99984863 -437.31111328 448.93329102 -437.82177734 449.89501953 C-441.36843478 456.59465076 -444.85998953 463.32156321 -448.31982422 470.06640625 C-448.86219727 471.1224707 -449.40457031 472.17853516 -449.96337891 473.26660156 C-459.35485675 491.62144025 -468.06438234 510.23766804 -476.43566895 529.07672119 C-477.28461597 530.98717432 -478.1356508 532.8966869 -478.98681641 534.80615234 C-505.35252951 594.14904157 -527.01820597 655.42884456 -547.31982422 717.06640625 C-547.64982422 717.06640625 -547.97982422 717.06640625 -548.31982422 717.06640625 C-545.18626576 662.59972964 -536.22655388 608.46019508 -525.31982422 555.06640625 C-525.04878876 553.73863159 -525.04878876 553.73863159 -524.77227783 552.3840332 C-511.17753316 486.05932631 -492.19695778 420.67326663 -466.31982422 358.06640625 C-466.06112549 357.43963989 -465.80242676 356.81287354 -465.53588867 356.16711426 C-453.49651906 327.06787085 -439.99989551 298.38855342 -424.31982422 271.06640625 C-423.74506348 270.05835938 -423.17030273 269.0503125 -422.578125 268.01171875 C-405.2749521 237.80316748 -385.9429419 208.60192514 -363.72558594 181.77636719 C-361.80610185 179.44151715 -359.93848988 177.06701686 -358.06982422 174.69140625 C-354.76394393 170.54339646 -351.27153824 166.59587828 -347.69091797 162.68359375 C-345.7753829 160.56924697 -343.89428625 158.43435609 -342.02294922 156.28125 C-332.53683572 145.41891937 -322.62754113 135.01601472 -311.84130859 125.43945312 C-310.1898401 123.94910351 -308.57335162 122.42651267 -306.96044922 120.89453125 C-300.1812793 114.46432406 -293.24496863 108.45462145 -285.82373047 102.77734375 C-283.55552026 101.04081348 -281.33977896 99.26377346 -279.15966797 97.41796875 C-245.2940153 68.95522449 -204.35654672 47.01248667 -163.31982422 31.06640625 C-162.32692383 30.68000977 -161.33402344 30.29361328 -160.31103516 29.89550781 C-109.02029861 10.1759304 -54.73678584 1.56687074 0 0 Z " fill="#F3FB80" transform="translate(1003.31982421875,228.93359375)"/>
<path d="M0 0 C1.15495468 -0.00095673 2.30990936 -0.00191345 3.49986267 -0.00289917 C5.927562 -0.00357469 8.3552632 -0.00176464 10.78295898 0.00244141 C14.43152085 0.00776389 18.07995768 0.00249257 21.72851562 -0.00390625 C117.77856344 -0.03328522 212.89012579 27.78885202 339.40234375 110.1328125 C340.24539063 110.79410156 341.0884375 111.45539063 341.95703125 112.13671875 C352.62715193 120.57395475 362.89252763 129.43757274 372.85351562 138.69726562 C374.48375795 140.20827206 376.12184756 141.71038946 377.76171875 143.2109375 C386.43114841 151.15231428 394.72485687 159.2148583 402.40234375 168.1328125 C406.60939462 172.93626522 410.8146428 177.68847721 415.40234375 182.1328125 C414.74234375 182.4628125 414.08234375 182.7928125 413.40234375 183.1328125 C411.35302734 182.16748047 411.35302734 182.16748047 408.80078125 180.625 C407.84840576 180.05716797 406.89603027 179.48933594 405.91479492 178.90429688 C404.87943604 178.27845703 403.84407715 177.65261719 402.77734375 177.0078125 C390.48840225 169.7126625 378.02296311 162.83441302 365.40234375 156.1328125 C363.84338379 155.2979834 363.84338379 155.2979834 362.25292969 154.44628906 C293.69628916 117.79493473 219.10463141 90.88646712 41.08984375 67.9453125 C39.71730942 67.94671738 39.71730942 67.94671738 38.31704712 67.94815063 C-58.54069183 68.16139418 -152.33449161 96.52792261 -279.06396484 188.83398438 C-280.64931436 190.2723782 -282.24166961 191.70313035 -283.84423828 193.12231445 C-290.03445714 198.61338588 -295.95797808 204.33779344 -301.79418945 210.19897461 C-303.2907055 211.70088175 -304.79253925 213.19732312 -306.29492188 214.69335938 C-311.60619487 220.00058577 -316.74029643 225.40283555 -321.59765625 231.1328125 C-322.55888386 232.23916129 -323.52109112 233.34465986 -324.484375 234.44921875 C-349.83279693 263.7541404 -372.29288512 295.53281906 -391.59765625 329.1328125 C-392.11392578 330.0201709 -392.63019531 330.9075293 -393.16210938 331.82177734 C-437.18181166 407.64951838 -465.95832501 491.01990299 -509.8605957 722.74658203 C-510.49587938 730.53121064 -511.40902417 738.27753678 -512.32696533 746.03259277 C-513.85755154 758.96820318 -515.1639621 771.86880998 -516.00195312 784.87182617 C-516.06833984 785.89381104 -516.13472656 786.9157959 -516.203125 787.96875 C-516.25621826 788.85095215 -516.30931152 789.7331543 -516.36401367 790.64208984 C-516.60323741 793.19230989 -517.05163999 795.63185051 -517.59765625 798.1328125 C-517.92765625 798.1328125 -518.25765625 798.1328125 -518.59765625 798.1328125 C-519.02880535 791.88917726 -519.45591516 785.6452832 -519.87939453 779.40112305 C-520.02381038 777.27995467 -520.16930159 775.15885921 -520.31591797 773.0378418 C-520.52729149 769.97723952 -520.73470954 766.91639001 -520.94140625 763.85546875 C-521.00702759 762.91760025 -521.07264893 761.97973175 -521.14025879 761.01344299 C-521.5166522 755.37180185 -521.65821095 749.78710732 -521.59765625 744.1328125 C-521.26765625 744.1328125 -520.93765625 744.1328125 -520.59765625 744.1328125 C-520.57482071 743.30310944 -520.55198517 742.47340637 -520.52845764 741.61856079 C-520.31161559 733.7631492 -520.09129703 725.90784422 -519.86716557 718.0526371 C-519.75208397 714.01512182 -519.63830227 709.97757899 -519.52758789 705.93994141 C-519.42050435 702.03652114 -519.30988011 698.13321522 -519.19689751 694.2299614 C-519.1545999 692.74782157 -519.1135345 691.26564599 -519.07377815 689.78343582 C-518.88041698 682.60264142 -518.630915 675.46604361 -517.83052063 668.32287598 C-517.45556958 664.79650327 -517.29581472 661.26411559 -517.1328125 657.72265625 C-517.05548629 656.15168543 -516.97800652 654.58072216 -516.90039062 653.00976562 C-516.86131592 652.20289307 -516.82224121 651.39602051 -516.78198242 650.56469727 C-516.18842238 638.41158509 -515.55451752 626.26359128 -514.59765625 614.1328125 C-514.49142944 612.74243774 -514.49142944 612.74243774 -514.38305664 611.32397461 C-513.86510294 605.07052041 -513.00243156 598.89721016 -512.08837891 592.69042969 C-511.47014035 588.20835396 -511.03196038 583.72088951 -510.60961914 579.21679688 C-508.48453516 556.5620265 -504.91031793 534.15111723 -500.5 511.83203125 C-499.43834787 506.41592024 -498.55034686 500.97283511 -497.72412109 495.51611328 C-496.91400577 490.3878717 -495.69480207 485.41257948 -494.4074707 480.38452148 C-493.57628523 477.04699984 -492.82252286 473.70030696 -492.08984375 470.33984375 C-479.00638346 410.35333597 -459.1201242 352.54861735 -432.59765625 297.1328125 C-432.11329102 296.11880371 -431.62892578 295.10479492 -431.12988281 294.06005859 C-423.70617654 278.62003891 -415.41310596 263.8164571 -406.59765625 249.1328125 C-405.66239068 247.55490659 -404.72747009 245.97679613 -403.79296875 244.3984375 C-387.03751389 216.31730765 -367.62961538 189.36847668 -345.52734375 165.2421875 C-343.74595229 163.29491748 -342.01005855 161.31756779 -340.28515625 159.3203125 C-330.07552834 147.62521909 -319.50018866 136.02074239 -307.6796875 125.93359375 C-305.16612047 123.75957048 -302.72989396 121.50890762 -300.28515625 119.2578125 C-295.40463297 114.8173364 -290.4195892 110.55981223 -285.25585938 106.45214844 C-284.07242164 105.51055575 -282.89172817 104.56550968 -281.71289062 103.61816406 C-219.03724727 53.35145681 -144.98583309 20.79138702 -66.08447266 6.75756836 C-63.93899172 6.37314841 -61.79501876 5.98004645 -59.65380859 5.57250977 C-52.70657888 4.25242324 -45.74905189 3.35610467 -38.72265625 2.5703125 C-37.64113281 2.44462891 -36.55960938 2.31894531 -35.4453125 2.18945312 C-23.62257678 0.84371861 -11.90252673 -0.0224497 0 0 Z " fill="#7BBCF1" transform="translate(972.59765625,152.8671875)"/>
<path d="M0 0 C0.73897522 0.10654907 1.47795044 0.21309814 2.23931885 0.32287598 C77.00087855 11.10996151 148.89090397 34.89386491 265 92 C267.04286586 93.14992238 269.08583883 94.29965451 271.12890625 95.44921875 C275.04439427 97.6557301 278.95576558 99.86924836 282.86328125 102.08984375 C287.55902383 104.75657268 292.27393116 107.38744363 297 110 C296.58637207 109.44538086 296.17274414 108.89076172 295.74658203 108.31933594 C293.86948392 105.79861615 291.99720181 103.27435822 290.125 100.75 C289.14853516 99.44095703 289.14853516 99.44095703 288.15234375 98.10546875 C287.52714844 97.26113281 286.90195313 96.41679687 286.2578125 95.546875 C285.6817627 94.77182617 285.10571289 93.99677734 284.51220703 93.19824219 C283.12908058 91.1876399 282.02576768 89.21002307 281 87 C285.90603124 88.4318678 289.97511609 90.49868905 294.3125 93.125 C295.29500732 93.71680054 295.29500732 93.71680054 296.29736328 94.32055664 C309.11788249 102.23576499 309.11788249 102.23576499 312 108 C312.10477607 109.50056092 312.1486759 111.00560276 312.16113281 112.50976562 C312.17074036 113.44413452 312.1803479 114.37850342 312.19024658 115.34118652 C312.19449646 116.35265747 312.19874634 117.36412842 312.203125 118.40625 C312.20882507 119.44189087 312.21452515 120.47753174 312.22039795 121.54455566 C312.22985371 123.73688737 312.23638421 125.92923332 312.24023438 128.12158203 C312.24996026 131.48625208 312.28098679 134.85031665 312.3125 138.21484375 C312.31902779 140.34114219 312.32427914 142.46744502 312.328125 144.59375 C312.3404718 145.60522095 312.3528186 146.61669189 312.36553955 147.65881348 C312.36253845 148.59318237 312.35953735 149.52755127 312.35644531 150.49023438 C312.36009094 151.31471069 312.36373657 152.13918701 312.36749268 152.98864746 C312.1855838 153.98426697 312.1855838 153.98426697 312 155 C308.29995678 157.46669548 306.35628748 157.28451768 301.9375 157.3359375 C301.2389389 157.34449768 300.54037781 157.35305786 299.82064819 157.36187744 C297.54684081 157.38194702 295.27387974 157.3819625 293 157.375 C291.83371063 157.37219025 291.83371063 157.37219025 290.64385986 157.36932373 C271.20423552 157.26744049 254.88198606 152.72473747 236.43774414 146.85498047 C205.28133537 136.97804676 173.35936984 131.79516852 141 127.75 C139.81245117 127.59893799 138.62490234 127.44787598 137.40136719 127.29223633 C113.39424614 124.44624638 89.42409621 123.66570359 65.27832031 123.73925781 C61.49495651 123.75069285 57.7118728 123.74382516 53.9285183 123.73239422 C29.69107297 123.66997483 5.8411313 124.86640557 -18.125 128.6875 C-18.94596161 128.81627533 -19.76692322 128.94505066 -20.61276245 129.07772827 C-70.49774657 136.94737895 -121.78625142 151.44106773 -166.734375 174.80859375 C-172.55321811 177.82991613 -178.46891255 180.65430942 -184.375 183.5 C-185.48891113 184.04132568 -186.60282227 184.58265137 -187.75048828 185.14038086 C-189.30872314 185.89073608 -189.30872314 185.89073608 -190.8984375 186.65625 C-191.83349121 187.10806641 -192.76854492 187.55988281 -193.73193359 188.02539062 C-196 189 -196 189 -198 189 C-198 189.66 -198 190.32 -198 191 C-198.62640381 191.31525635 -199.25280762 191.6305127 -199.89819336 191.95532227 C-226.95308957 205.6361428 -252.90904933 220.94506991 -276.9453125 239.48828125 C-279 241 -279 241 -280 241 C-280.30194004 231.7512496 -280.5325392 222.50420709 -280.67355824 213.25159454 C-280.74126431 208.95436436 -280.83297041 204.6605169 -280.98071289 200.36523438 C-281.12255701 196.21519658 -281.19980138 192.06839774 -281.23340416 187.91612244 C-281.25732724 186.33687813 -281.30405712 184.75780114 -281.37449074 183.1799469 C-281.58928139 178.16624644 -281.57015136 173.80132232 -280 169 C-276.05000308 165.20845806 -272.02182484 163.20548397 -267 161 C-265.49926274 160.15892259 -264.00618183 159.30351923 -262.53125 158.41796875 C-261.18976826 157.67039429 -259.8459862 156.92693355 -258.5 156.1875 C-257.74702637 155.77282471 -256.99405273 155.35814941 -256.21826172 154.9309082 C-253.8157438 153.61393051 -251.40873061 152.30557654 -249 151 C-248.20625977 150.56816406 -247.41251953 150.13632812 -246.59472656 149.69140625 C-176.72917666 111.85341458 -100.8988036 86.53293578 -22 77 C-21.31556824 76.91536499 -20.63113647 76.83072998 -19.92596436 76.74353027 C26.54897724 71.03979381 75.51109869 72.06842823 122 77 C123.28919342 77.13435455 123.28919342 77.13435455 124.60443115 77.27142334 C181.95856998 83.26761486 236.69694965 94.47381788 290 117 C270.25807596 105.81858055 250.26379497 95.20406246 230 85 C228.29239502 84.13810059 228.29239502 84.13810059 226.55029297 83.25878906 C196.318235 68.09494616 164.94775192 55.07505203 133 44 C131.70396058 43.54548646 130.4080647 43.09056342 129.11230469 42.63525391 C107.36030313 35.01262197 85.35237224 28.61482132 63 23 C62.32022095 22.82919922 61.64044189 22.65839844 60.94006348 22.48242188 C12.50318481 10.38284035 -38.99125142 3.13393975 -89 5 C-90.25474121 5.04640625 -91.50948242 5.0928125 -92.80224609 5.140625 C-163.59941328 7.91645804 -230.52300612 24.35627812 -294 56 C-294.79486816 56.39541992 -295.58973633 56.79083984 -296.40869141 57.19824219 C-326.60665687 72.35407602 -354.08934465 92.45483383 -380 114 C-380.62181152 114.51594727 -381.24362305 115.03189453 -381.88427734 115.56347656 C-389.12306385 121.59420322 -395.98122455 127.82830306 -402.56640625 134.56640625 C-404.58389363 136.58389363 -406.62124299 138.42935728 -408.8125 140.25 C-414.80865851 145.37197524 -420.00234894 151.36231938 -425.32080078 157.16796875 C-426.81134104 158.79417028 -428.30843279 160.41393154 -429.80859375 162.03125 C-434.56646625 167.19736429 -439.12803511 172.47707431 -443.53515625 177.9453125 C-445.34085175 180.1831158 -447.15979312 182.40481899 -448.99609375 184.6171875 C-475.48999541 216.64477886 -498.0168152 252.45632004 -517.47119141 289.12304688 C-518.51426273 291.08592654 -519.56369795 293.04543439 -520.61865234 295.00195312 C-531.14826913 314.54423403 -540.26456715 334.60441067 -549 355 C-549.51691406 356.2065625 -550.03382813 357.413125 -550.56640625 358.65625 C-587.09242273 444.64665393 -608.87443044 536.15706341 -626 645 C-626.33 645 -626.66 645 -627 645 C-626.49225282 630.92227866 -624.4968243 617.10911935 -622.4375 603.1875 C-622.2601532 601.97992035 -622.0828064 600.7723407 -621.90008545 599.52816772 C-608.88828436 511.26117859 -587.29318206 423.61306283 -508.58642578 254.62597656 C-507.03212064 252.0531686 -505.50971441 249.46410034 -503.99609375 246.8671875 C-484.83157884 214.13417058 -461.76283534 183.50610666 -436.23046875 155.4765625 C-435.01131468 154.12289581 -433.79861061 152.76285554 -432.61938477 151.37426758 C-427.45246584 145.32325414 -421.8632279 139.71129666 -416.23022461 134.09985352 C-414.56573723 132.4407268 -412.90666553 130.77631949 -411.24804688 129.11132812 C-405.67110962 123.530587 -400.02637063 118.0983248 -394 113 C-392.91647912 112.05117758 -391.83439972 111.10070602 -390.75390625 110.1484375 C-381.80965121 102.34742265 -372.50049471 95.10807509 -363 88 C-362.3591748 87.51644043 -361.71834961 87.03288086 -361.05810547 86.53466797 C-351.33899358 79.20546012 -341.31515249 72.46097531 -331 66 C-330.40848145 65.62697754 -329.81696289 65.25395508 -329.20751953 64.86962891 C-268.23428894 26.61499956 -196.58602253 4.32891108 -125 -2 C-123.97874023 -2.10151367 -122.95748047 -2.20302734 -121.90527344 -2.30761719 C-81.62132784 -6.25019538 -40.05284064 -5.90901433 0 0 Z " fill="#343132" transform="translate(1090,225)"/>
<path d="M0 0 C78.44825423 -2.05317132 157.33132361 16.14509073 256.68017578 53.06640625 C257.81293945 53.5351416 258.94570312 54.00387695 260.11279297 54.48681641 C300.91457287 71.47318716 340.24987832 91.26354408 378.68017578 113.06640625 C374.76445877 114.37164525 373.64124581 113.38880473 369.99267578 111.62890625 C368.501875 110.91927734 368.501875 110.91927734 366.98095703 110.1953125 C365.84207031 109.63650391 365.84207031 109.63650391 364.68017578 109.06640625 C364.68017578 108.40640625 364.68017578 107.74640625 364.68017578 107.06640625 C363.53742188 106.73189453 363.53742188 106.73189453 362.37158203 106.390625 C358.37164567 104.95572719 354.62615622 103.21029755 350.79150391 101.38671875 C279.90710316 67.71117575 202.38306684 43.96685696 68.05517578 32.94140625 C66.80994141 32.94423111 66.80994141 32.94423111 65.53955078 32.94711304 C-8.75649458 33.14385654 -82.35426942 47.03972636 -149.8359375 78.89648438 C-152.49934078 80.15095936 -155.17298678 81.38196362 -157.84716797 82.61328125 C-186.97904881 96.14825656 -214.60850809 112.82247502 -240.31982422 132.06640625 C-241.45996136 132.9095143 -242.60055529 133.75200514 -243.74169922 134.59375 C-250.05066351 139.27743542 -256.22022788 144.11406941 -262.31982422 149.06640625 C-263.20412109 149.77539062 -264.08841797 150.484375 -264.99951172 151.21484375 C-270.68118659 155.80203167 -276.15516451 160.55659619 -281.51904297 165.51171875 C-283.69542775 167.49687307 -285.89244532 169.440764 -288.11669922 171.37109375 C-292.46963052 175.16779722 -296.68419054 179.10002475 -300.88232422 183.06640625 C-301.95643555 184.07574219 -301.95643555 184.07574219 -303.05224609 185.10546875 C-309.36980985 191.06087917 -315.51476864 197.06154436 -321.17919922 203.64453125 C-323.40453529 206.16224724 -325.6897908 208.61319696 -327.98974609 211.0625 C-333.23930336 216.65481187 -338.29370262 222.3162115 -343.08935547 228.30859375 C-345.0992629 230.79369821 -347.16125629 233.224387 -349.24829102 235.64477539 C-355.42880248 242.83047852 -361.13261171 250.3143931 -366.74853516 257.94628906 C-368.2994634 260.03893369 -369.87281347 262.11270471 -371.45263672 264.18359375 C-387.52609127 285.40518129 -401.9834578 308.03875403 -415.31982422 331.06640625 C-415.79645508 331.87980469 -416.27308594 332.69320313 -416.76416016 333.53125 C-425.11658369 347.78693145 -432.81650747 362.34846189 -440.31982422 377.06640625 C-440.70090332 377.81196777 -441.08198242 378.5575293 -441.47460938 379.32568359 C-443.43074919 383.16218736 -445.35182994 387.01441978 -447.24609375 390.88183594 C-448.0130177 392.44218963 -448.78544432 393.99984364 -449.56152344 395.55566406 C-474.30491329 445.22167875 -494.5889537 498.51228043 -509.70458984 551.90576172 C-510.32665372 554.0903908 -510.96950863 556.26800588 -511.61669922 558.4453125 C-521.09356041 590.59144888 -528.96531848 623.13083114 -535.86669922 655.91680908 C-536.53369464 659.08099438 -537.20873094 662.24346369 -537.88232422 665.40625 C-540.18110936 676.26532005 -542.34411005 687.14375883 -544.31982422 698.06640625 C-544.64982422 698.06640625 -544.97982422 698.06640625 -545.31982422 698.06640625 C-545.68393266 684.82196174 -544.63406116 672.11602539 -542.81982422 659.00390625 C-542.54937729 656.99813102 -542.27895137 654.99235295 -542.00854492 652.98657227 C-528.716615 555.59449514 -506.71091728 459.04626372 -424.31982422 271.06640625 C-423.74216309 270.05255859 -423.16450195 269.03871094 -422.56933594 267.99414062 C-405.26854877 237.79207918 -385.93851435 208.59657924 -363.72558594 181.77636719 C-361.80610185 179.44151715 -359.93848988 177.06701686 -358.06982422 174.69140625 C-354.76394393 170.54339646 -351.27153824 166.59587828 -347.69091797 162.68359375 C-345.7753829 160.56924697 -343.89428625 158.43435609 -342.02294922 156.28125 C-332.53683572 145.41891937 -322.62754113 135.01601472 -311.84130859 125.43945312 C-310.1898401 123.94910351 -308.57335162 122.42651267 -306.96044922 120.89453125 C-300.1812793 114.46432406 -293.24496863 108.45462145 -285.82373047 102.77734375 C-283.55552026 101.04081348 -281.33977896 99.26377346 -279.15966797 97.41796875 C-245.2940153 68.95522449 -204.35654672 47.01248667 -163.31982422 31.06640625 C-162.32692383 30.68000977 -161.33402344 30.29361328 -160.31103516 29.89550781 C-109.02029861 10.1759304 -54.73678584 1.56687074 0 0 Z " fill="#F9FEAE" transform="translate(1003.31982421875,228.93359375)"/>
<path d="M0 0 C0.73897522 0.10654907 1.47795044 0.21309814 2.23931885 0.32287598 C77.00087855 11.10996151 148.89090397 34.89386491 265 92 C267.04286586 93.14992238 269.08583883 94.29965451 271.12890625 95.44921875 C275.04439427 97.6557301 278.95576558 99.86924836 282.86328125 102.08984375 C287.55902383 104.75657268 292.27393116 107.38744363 297 110 C296.58637207 109.44538086 296.17274414 108.89076172 295.74658203 108.31933594 C293.86948392 105.79861615 291.99720181 103.27435822 290.125 100.75 C289.14853516 99.44095703 289.14853516 99.44095703 288.15234375 98.10546875 C287.52714844 97.26113281 286.90195313 96.41679687 286.2578125 95.546875 C285.6817627 94.77182617 285.10571289 93.99677734 284.51220703 93.19824219 C283.12908058 91.1876399 282.02576768 89.21002307 281 87 C285.90603124 88.4318678 289.97511609 90.49868905 294.3125 93.125 C295.29500732 93.71680054 295.29500732 93.71680054 296.29736328 94.32055664 C309.11788249 102.23576499 309.11788249 102.23576499 312 108 C312.10477607 109.50056092 312.1486759 111.00560276 312.16113281 112.50976562 C312.17074036 113.44413452 312.1803479 114.37850342 312.19024658 115.34118652 C312.19449646 116.35265747 312.19874634 117.36412842 312.203125 118.40625 C312.20882507 119.44189087 312.21452515 120.47753174 312.22039795 121.54455566 C312.22985371 123.73688737 312.23638421 125.92923332 312.24023438 128.12158203 C312.24996026 131.48625208 312.28098679 134.85031665 312.3125 138.21484375 C312.31902779 140.34114219 312.32427914 142.46744502 312.328125 144.59375 C312.3404718 145.60522095 312.3528186 146.61669189 312.36553955 147.65881348 C312.36253845 148.59318237 312.35953735 149.52755127 312.35644531 150.49023438 C312.36009094 151.31471069 312.36373657 152.13918701 312.36749268 152.98864746 C312.1855838 153.98426697 312.1855838 153.98426697 312 155 C308.29995678 157.46669548 306.35628748 157.28451768 301.9375 157.3359375 C301.2389389 157.34449768 300.54037781 157.35305786 299.82064819 157.36187744 C297.54684081 157.38194702 295.27387974 157.3819625 293 157.375 C291.83371063 157.37219025 291.83371063 157.37219025 290.64385986 157.36932373 C271.20423552 157.26744049 254.88198606 152.72473747 236.43774414 146.85498047 C205.28133537 136.97804676 173.35936984 131.79516852 141 127.75 C139.81245117 127.59893799 138.62490234 127.44787598 137.40136719 127.29223633 C113.39424614 124.44624638 89.42409621 123.66570359 65.27832031 123.73925781 C61.49495651 123.75069285 57.7118728 123.74382516 53.9285183 123.73239422 C29.69107297 123.66997483 5.8411313 124.86640557 -18.125 128.6875 C-18.94596161 128.81627533 -19.76692322 128.94505066 -20.61276245 129.07772827 C-70.49774657 136.94737895 -121.78625142 151.44106773 -166.734375 174.80859375 C-172.55321811 177.82991613 -178.46891255 180.65430942 -184.375 183.5 C-185.48891113 184.04132568 -186.60282227 184.58265137 -187.75048828 185.14038086 C-189.30872314 185.89073608 -189.30872314 185.89073608 -190.8984375 186.65625 C-191.83349121 187.10806641 -192.76854492 187.55988281 -193.73193359 188.02539062 C-196 189 -196 189 -198 189 C-198 189.66 -198 190.32 -198 191 C-198.62640381 191.31525635 -199.25280762 191.6305127 -199.89819336 191.95532227 C-226.95308957 205.6361428 -252.90904933 220.94506991 -276.9453125 239.48828125 C-279 241 -279 241 -280 241 C-280.82719799 237.76014119 -280.91129347 235.23410129 -280 232 C-277.09259013 228.83299996 -273.64216689 226.60284786 -270.04150391 224.30566406 C-267.81107295 222.87916983 -265.61497619 221.40710331 -263.41796875 219.9296875 C-249.5149009 210.65682171 -235.13946864 202.24851696 -220.4375 194.3125 C-219.81190186 193.97307373 -219.18630371 193.63364746 -218.54174805 193.28393555 C-214.24218336 191 -214.24218336 191 -212 191 C-212 190.34 -212 189.68 -212 189 C-197.28070542 181.47915635 -182.55033608 174.15409747 -167.34985352 167.64135742 C-162.84675377 165.71004404 -158.41755608 163.73585565 -154.0625 161.48828125 C-148.41311332 158.62228633 -142.57051812 156.42035012 -136.625 154.25 C-135.45163086 153.82025879 -134.27826172 153.39051758 -133.06933594 152.94775391 C-89.49350827 137.15311033 -45.12609471 126.55341507 1 122 C2.17175781 121.88140625 3.34351563 121.7628125 4.55078125 121.640625 C78.98150457 114.49527556 155.51930948 122.05375837 228.3862915 137.71377563 C256.12455801 144.90273389 256.12455801 144.90273389 284 143 C284.33 134.09 284.66 125.18 285 116 C285.99 116 286.98 116 288 116 C269.03779777 104.93747562 249.60370923 94.86763887 230 85 C228.82453613 84.40687012 227.64907227 83.81374023 226.43798828 83.20263672 C196.24396799 68.05839922 164.90712253 55.06096739 133 44 C131.70396058 43.54548646 130.4080647 43.09056342 129.11230469 42.63525391 C107.36030313 35.01262197 85.35237224 28.61482132 63 23 C62.32022095 22.82919922 61.64044189 22.65839844 60.94006348 22.48242188 C12.50318481 10.38284035 -38.99125142 3.13393975 -89 5 C-90.25474121 5.04640625 -91.50948242 5.0928125 -92.80224609 5.140625 C-163.59941328 7.91645804 -230.52300612 24.35627812 -294 56 C-294.79486816 56.39541992 -295.58973633 56.79083984 -296.40869141 57.19824219 C-326.60665687 72.35407602 -354.08934465 92.45483383 -380 114 C-380.62181152 114.51594727 -381.24362305 115.03189453 -381.88427734 115.56347656 C-389.12306385 121.59420322 -395.98122455 127.82830306 -402.56640625 134.56640625 C-404.58389363 136.58389363 -406.62124299 138.42935728 -408.8125 140.25 C-414.80865851 145.37197524 -420.00234894 151.36231938 -425.32080078 157.16796875 C-426.81134104 158.79417028 -428.30843279 160.41393154 -429.80859375 162.03125 C-434.56646625 167.19736429 -439.12803511 172.47707431 -443.53515625 177.9453125 C-445.34085175 180.1831158 -447.15979312 182.40481899 -448.99609375 184.6171875 C-475.48999541 216.64477886 -498.0168152 252.45632004 -517.47119141 289.12304688 C-518.51426273 291.08592654 -519.56369795 293.04543439 -520.61865234 295.00195312 C-531.14826913 314.54423403 -540.26456715 334.60441067 -549 355 C-549.51691406 356.2065625 -550.03382813 357.413125 -550.56640625 358.65625 C-587.09242273 444.64665393 -608.87443044 536.15706341 -626 645 C-626.33 645 -626.66 645 -627 645 C-626.49225282 630.92227866 -624.4968243 617.10911935 -622.4375 603.1875 C-622.2601532 601.97992035 -622.0828064 600.7723407 -621.90008545 599.52816772 C-608.88828436 511.26117859 -587.29318206 423.61306283 -508.58642578 254.62597656 C-507.03212064 252.0531686 -505.50971441 249.46410034 -503.99609375 246.8671875 C-484.83157884 214.13417058 -461.76283534 183.50610666 -436.23046875 155.4765625 C-435.01131468 154.12289581 -433.79861061 152.76285554 -432.61938477 151.37426758 C-427.45246584 145.32325414 -421.8632279 139.71129666 -416.23022461 134.09985352 C-414.56573723 132.4407268 -412.90666553 130.77631949 -411.24804688 129.11132812 C-405.67110962 123.530587 -400.02637063 118.0983248 -394 113 C-392.91647912 112.05117758 -391.83439972 111.10070602 -390.75390625 110.1484375 C-381.80965121 102.34742265 -372.50049471 95.10807509 -363 88 C-362.3591748 87.51644043 -361.71834961 87.03288086 -361.05810547 86.53466797 C-351.33899358 79.20546012 -341.31515249 72.46097531 -331 66 C-330.40848145 65.62697754 -329.81696289 65.25395508 -329.20751953 64.86962891 C-268.23428894 26.61499956 -196.58602253 4.32891108 -125 -2 C-123.97874023 -2.10151367 -122.95748047 -2.20302734 -121.90527344 -2.30761719 C-81.62132784 -6.25019538 -40.05284064 -5.90901433 0 0 Z " fill="#2B2C2B" transform="translate(1090,225)"/>
<path d="M0 0 C7.49117948 1.94948553 14.821284 4.18839411 22.125 6.75 C23.60528687 7.26626953 23.60528687 7.26626953 25.11547852 7.79296875 C33.88549261 10.88851797 42.44063432 14.36416325 51 18 C51 27.24 51 36.48 51 46 C41.04669729 50.97665136 26.56377212 47.69824052 16 45.9375 C14.98536179 45.77435303 14.98536179 45.77435303 13.95022583 45.60791016 C3.52755526 43.93189067 -6.76771528 41.82645426 -17.0625 39.5 C-86.54435652 23.83937433 -162.12072563 18.82630006 -233 26 C-234.30582031 26.12890625 -235.61164063 26.2578125 -236.95703125 26.390625 C-292.02380321 31.94156901 -349.78273363 45.42633255 -399.40258789 70.70288086 C-404.41386277 73.20545661 -409.52969113 75.48729563 -414.625 77.8125 C-422.98440615 81.64132613 -431.29364806 85.52905056 -439.45556641 89.76489258 C-443.8006393 92 -443.8006393 92 -446 92 C-446 92.66 -446 93.32 -446 94 C-446.88014771 94.44315552 -446.88014771 94.44315552 -447.77807617 94.89526367 C-467.83078315 105.0432844 -486.65547262 116.48530837 -505.09375 129.3203125 C-507.99806768 131.33535577 -510.93398047 133.23582209 -514 135 C-515.64825392 120.34885402 -515.64825392 120.34885402 -512.25390625 115.51171875 C-509.90074956 113.79732846 -507.52210569 112.35937161 -504.93457031 111.02685547 C-502.7477051 109.86608375 -500.65871276 108.59000928 -498.5546875 107.28515625 C-493.41686401 104.10813209 -488.21483018 101.04849816 -483 98 C-482.07638672 97.45666016 -481.15277344 96.91332031 -480.20117188 96.35351562 C-477.4308712 94.72675811 -474.65426568 93.11138541 -471.875 91.5 C-470.61550537 90.76185059 -470.61550537 90.76185059 -469.33056641 90.00878906 C-465.39306959 87.74697226 -461.52656629 85.74057111 -457.28125 84.12109375 C-449.79829859 81.2542582 -442.81452297 77.31437672 -435.74609375 73.56616211 C-427.65100485 69.28307423 -419.51807551 65.39024692 -411 62 C-406.93567389 60.32279677 -402.98724364 58.49529172 -399.06738281 56.50097656 C-389.59406324 51.77169858 -379.7242666 48.24927821 -369.75 44.75 C-369.02179047 44.49397003 -368.29358093 44.23794006 -367.54330444 43.97415161 C-342.43889269 35.17605287 -342.43889269 35.17605287 -332.51171875 33.58984375 C-329.77140708 33.00915257 -329.77140708 33.00915257 -326.390625 31.5859375 C-321.39756029 29.66766847 -316.30524337 28.68545301 -311.0625 27.6875 C-309.98476318 27.47875244 -308.90702637 27.27000488 -307.79663086 27.05493164 C-305.44458798 26.60241742 -303.09176793 26.1539285 -300.73828125 25.70898438 C-297.55739569 25.10571298 -294.37924517 24.48986328 -291.20161438 23.86973572 C-247.08547219 15.29596315 -202.93298899 12.29553678 -158.02575684 12.97003174 C-156.15166081 12.99775639 -154.27749069 13.0203446 -152.40332031 13.04248047 C-117.79326898 13.53430218 -83.25219849 17.53650128 -49.01501465 22.36233521 C-25.88927253 26.02253473 -25.88927253 26.02253473 -3 23 C-0.91254955 19.86882433 -0.72346004 18.93053776 -0.5859375 15.33203125 C-0.54726562 14.43935547 -0.50859375 13.54667969 -0.46875 12.62695312 C-0.4378125 11.69818359 -0.406875 10.76941406 -0.375 9.8125 C-0.33632812 8.87212891 -0.29765625 7.93175781 -0.2578125 6.96289062 C-0.16356813 4.6421229 -0.07795975 2.32136252 0 0 Z " fill="#2E2D2D" transform="translate(1324,322)"/>
<path d="M0 0 C4.90603124 1.4318678 8.97511609 3.49868905 13.3125 6.125 C14.29500732 6.71680054 14.29500732 6.71680054 15.29736328 7.32055664 C28.11788249 15.23576499 28.11788249 15.23576499 31 21 C31.10477607 22.50056092 31.1486759 24.00560276 31.16113281 25.50976562 C31.17074036 26.44413452 31.1803479 27.37850342 31.19024658 28.34118652 C31.19449646 29.35265747 31.19874634 30.36412842 31.203125 31.40625 C31.20882507 32.44189087 31.21452515 33.47753174 31.22039795 34.54455566 C31.22985371 36.73688737 31.23638421 38.92923332 31.24023438 41.12158203 C31.24996026 44.48625208 31.28098679 47.85031665 31.3125 51.21484375 C31.31902779 53.34114219 31.32427914 55.46744502 31.328125 57.59375 C31.3404718 58.60522095 31.3528186 59.61669189 31.36553955 60.65881348 C31.36253845 61.59318237 31.35953735 62.52755127 31.35644531 63.49023438 C31.36009094 64.31471069 31.36373657 65.13918701 31.36749268 65.98864746 C31.24622009 66.6523938 31.12494751 67.31614014 31 68 C27.29995678 70.46669548 25.35628748 70.28451768 20.9375 70.3359375 C20.2389389 70.34449768 19.54037781 70.35305786 18.82064819 70.36187744 C16.54684081 70.38194702 14.27387974 70.3819625 12 70.375 C10.83371063 70.37219025 10.83371063 70.37219025 9.64385986 70.36932373 C-9.79576448 70.26744049 -26.11801394 65.72473747 -44.56225586 59.85498047 C-75.71866463 49.97804676 -107.64063016 44.79516852 -140 40.75 C-141.78132324 40.52340698 -141.78132324 40.52340698 -143.59863281 40.29223633 C-167.60575386 37.44624638 -191.57590379 36.66570359 -215.72167969 36.73925781 C-219.50504349 36.75069285 -223.2881272 36.74382516 -227.0714817 36.73239422 C-251.30892703 36.66997483 -275.1588687 37.86640557 -299.125 41.6875 C-299.94596161 41.81627533 -300.76692322 41.94505066 -301.61276245 42.07772827 C-351.49774657 49.94737895 -402.78625142 64.44106773 -447.734375 87.80859375 C-453.55321811 90.82991613 -459.46891255 93.65430942 -465.375 96.5 C-466.48891113 97.04132568 -467.60282227 97.58265137 -468.75048828 98.14038086 C-469.78931152 98.64061768 -470.82813477 99.14085449 -471.8984375 99.65625 C-472.83349121 100.10806641 -473.76854492 100.55988281 -474.73193359 101.02539062 C-477 102 -477 102 -479 102 C-479 102.66 -479 103.32 -479 104 C-479.62640381 104.31525635 -480.25280762 104.6305127 -480.89819336 104.95532227 C-507.95308957 118.6361428 -533.90904933 133.94506991 -557.9453125 152.48828125 C-560 154 -560 154 -561 154 C-561.82719799 150.76014119 -561.91129347 148.23410129 -561 145 C-558.09259013 141.83299996 -554.64216689 139.60284786 -551.04150391 137.30566406 C-548.81107295 135.87916983 -546.61497619 134.40710331 -544.41796875 132.9296875 C-530.5149009 123.65682171 -516.13946864 115.24851696 -501.4375 107.3125 C-500.81190186 106.97307373 -500.18630371 106.63364746 -499.54174805 106.28393555 C-495.24218336 104 -495.24218336 104 -493 104 C-493 103.34 -493 102.68 -493 102 C-478.28070542 94.47915635 -463.55033608 87.15409747 -448.34985352 80.64135742 C-443.84675377 78.71004404 -439.41755608 76.73585565 -435.0625 74.48828125 C-429.41311332 71.62228633 -423.57051812 69.42035012 -417.625 67.25 C-416.45163086 66.82025879 -415.27826172 66.39051758 -414.06933594 65.94775391 C-370.49350827 50.15311033 -326.12609471 39.55341507 -280 35 C-278.82824219 34.88140625 -277.65648437 34.7628125 -276.44921875 34.640625 C-202.01849543 27.49527556 -125.48069052 35.05375837 -52.6137085 50.71377563 C-24.87544199 57.90273389 -24.87544199 57.90273389 3 56 C3.33 47.09 3.66 38.18 4 29 C4.99 29 5.98 29 7 29 C6.01 28.34 5.02 27.68 4 27 C3.48828125 24.6171875 3.48828125 24.6171875 3.3125 21.875 C3.24675781 20.96492188 3.18101562 20.05484375 3.11328125 19.1171875 C3.07589844 18.41851562 3.03851562 17.71984375 3 17 C6.16272894 18.18602335 9.17446628 19.55925964 12.1875 21.078125 C13.26064453 21.61808105 13.26064453 21.61808105 14.35546875 22.16894531 C14.89816406 22.44319336 15.44085937 22.71744141 16 23 C15.58637207 22.44538086 15.17274414 21.89076172 14.74658203 21.31933594 C12.86948392 18.79861615 10.99720181 16.27435822 9.125 13.75 C8.14853516 12.44095703 8.14853516 12.44095703 7.15234375 11.10546875 C6.52714844 10.26113281 5.90195313 9.41679687 5.2578125 8.546875 C4.6817627 7.77182617 4.10571289 6.99677734 3.51220703 6.19824219 C2.12908058 4.1876399 1.02576768 2.21002307 0 0 Z " fill="#010101" transform="translate(1371,312)"/>
<path d="M0 0 C0.75782776 0.11126221 1.51565552 0.22252441 2.29644775 0.3371582 C23.0393934 3.39749503 43.5572806 7.3412171 64 12 C64 12.33 64 12.66 64 13 C57.69554257 12.51652934 51.53817869 11.62390535 45.3203125 10.51171875 C44.11490562 10.29621368 44.11490562 10.29621368 42.88514709 10.07635498 C41.18263934 9.7713555 39.48017155 9.46613282 37.77774048 9.16070557 C23.00057483 6.52470061 8.23830965 4.23223247 -6.6875 2.625 C-7.781763 2.506371 -7.781763 2.506371 -8.89813232 2.38534546 C-22.63434146 0.9140126 -36.32629125 -0.14877997 -50.1484375 -0.203125 C-51.35210464 -0.21009399 -52.55577179 -0.21706299 -53.7959137 -0.22424316 C-57.65564522 -0.24152413 -61.51523141 -0.24796238 -65.375 -0.25 C-66.69468781 -0.25100708 -68.01437561 -0.25201416 -69.37405396 -0.25305176 C-87.9453831 -0.251677 -106.22973815 0.10419799 -124.65527344 2.55566406 C-128.01907226 3.00253369 -131.38616434 3.3908046 -134.7578125 3.7734375 C-197.19561155 11.30996263 -258.46981079 33.03199045 -313 64 C-314.71078249 64.9560066 -316.42171607 65.9117429 -318.1328125 66.8671875 C-327.75454311 72.28828337 -336.97044282 78.12724811 -345.95800781 84.54345703 C-348.09748261 86.06953386 -350.24773244 87.57964407 -352.3984375 89.08984375 C-363.00827553 96.59201564 -373.08094295 104.6116768 -383 113 C-384.20428306 114.0079846 -385.40870433 115.01580409 -386.61328125 116.0234375 C-403.05150104 129.85788024 -419.52213923 144.69074644 -433.40625 161.125 C-435.34325871 163.40383378 -437.35905625 165.60324657 -439.375 167.8125 C-446.21389321 175.40610978 -452.56248571 183.28461859 -458.5078125 191.59375 C-461.88611069 196.26109736 -465.43057693 200.80416535 -468.9375 205.375 C-474.86012012 213.11070872 -480.53862477 220.9341454 -486 229 C-487.10244049 230.54290152 -488.20657014 232.08459769 -489.3125 233.625 C-500.1520766 249.13852247 -509.61336341 265.58468608 -519 282 C-519.6074707 283.05719238 -520.21494141 284.11438477 -520.84082031 285.20361328 C-533.49397375 307.29499307 -545.38446686 330.02545549 -554.74389648 353.734375 C-556.80502816 358.90251408 -556.80502816 358.90251408 -559 360 C-556.62694545 350.41576842 -552.48336884 341.58826951 -548.4375 332.625 C-548.06684418 331.80030212 -547.69618835 330.97560425 -547.31430054 330.12591553 C-535.68317306 304.29321828 -523.30168661 278.85719389 -508.58642578 254.62597656 C-507.03212064 252.0531686 -505.50971441 249.46410034 -503.99609375 246.8671875 C-484.83157884 214.13417058 -461.76283534 183.50610666 -436.23046875 155.4765625 C-435.01131468 154.12289581 -433.79861061 152.76285554 -432.61938477 151.37426758 C-427.45246584 145.32325414 -421.8632279 139.71129666 -416.23022461 134.09985352 C-414.56573723 132.4407268 -412.90666553 130.77631949 -411.24804688 129.11132812 C-405.67110962 123.530587 -400.02637063 118.0983248 -394 113 C-392.91647912 112.05117758 -391.83439972 111.10070602 -390.75390625 110.1484375 C-381.80965121 102.34742265 -372.50049471 95.10807509 -363 88 C-362.3591748 87.51644043 -361.71834961 87.03288086 -361.05810547 86.53466797 C-351.33899358 79.20546012 -341.31515249 72.46097531 -331 66 C-330.40848145 65.62697754 -329.81696289 65.25395508 -329.20751953 64.86962891 C-268.23428894 26.61499956 -196.58602253 4.32891108 -125 -2 C-123.97874023 -2.10151367 -122.95748047 -2.20302734 -121.90527344 -2.30761719 C-81.63825573 -6.24853865 -40.03413938 -5.95419685 0 0 Z " fill="#010101" transform="translate(1090,225)"/>
<path d="M0 0 C2.536875 0.94875 5.07375 1.8975 7.6875 2.875 C8.47729248 3.17003418 9.26708496 3.46506836 10.08081055 3.76904297 C10.71801025 4.00768066 11.35520996 4.24631836 12.01171875 4.4921875 C12.65584717 4.73308105 13.29997559 4.97397461 13.96362305 5.22216797 C16.31924553 6.12194176 18.65873779 7.06349511 21 8 C21 17.24 21 26.48 21 36 C11.04669729 40.97665136 -3.43622788 37.69824052 -14 35.9375 C-15.01463821 35.77435303 -15.01463821 35.77435303 -16.04977417 35.60791016 C-26.47244474 33.93189067 -36.76771528 31.82645426 -47.0625 29.5 C-116.54435652 13.83937433 -192.12072563 8.82630006 -263 16 C-264.30582031 16.12890625 -265.61164063 16.2578125 -266.95703125 16.390625 C-322.02380321 21.94156901 -379.78273363 35.42633255 -429.40258789 60.70288086 C-434.41386277 63.20545661 -439.52969113 65.48729563 -444.625 67.8125 C-452.98440615 71.64132613 -461.29364806 75.52905056 -469.45556641 79.76489258 C-473.8006393 82 -473.8006393 82 -476 82 C-476 82.66 -476 83.32 -476 84 C-476.88014771 84.44315552 -476.88014771 84.44315552 -477.77807617 84.89526367 C-497.83078315 95.0432844 -516.65547262 106.48530837 -535.09375 119.3203125 C-537.99806768 121.33535577 -540.93398047 123.23582209 -544 125 C-544.5625 121.9375 -544.5625 121.9375 -544 118 C-542.33227539 116.31713867 -542.33227539 116.31713867 -540.09765625 114.66796875 C-539.27676514 114.06186768 -538.45587402 113.4557666 -537.61010742 112.83129883 C-533.43257341 109.90026501 -529.19025041 107.09889134 -524.875 104.375 C-523.92488037 103.77381348 -522.97476074 103.17262695 -521.99584961 102.55322266 C-492.42753979 84.01815386 -460.6578327 66.76038787 -428.10986328 54.09057617 C-425.50548811 53.07333868 -423.08286517 52.05143841 -420.703125 50.57421875 C-381.84590837 27.94494374 -327.20557144 19.56668131 -283.0625 13.75 C-281.9170874 13.59885742 -280.7716748 13.44771484 -279.59155273 13.29199219 C-275.73202784 12.81410258 -271.86851575 12.39635479 -268 12 C-266.7790564 11.8691954 -266.7790564 11.8691954 -265.53344727 11.73574829 C-246.72736244 9.7755955 -227.96168794 9.65703364 -209.07666016 9.68432617 C-205.63381771 9.68892416 -202.19133142 9.68214334 -198.74853516 9.66381836 C-163.98894812 9.4807915 -129.48568328 11.63153631 -95.0390625 16.3984375 C-94.19558258 16.51472504 -93.35210266 16.63101257 -92.48306274 16.75082397 C-85.03778717 17.80429276 -77.62439039 19.03304121 -70.2109375 20.2890625 C-69.01998978 20.49060944 -67.82904205 20.69215637 -66.602005 20.89981079 C-60.73468761 21.89785542 -54.87179899 22.91605404 -49.01342773 23.96533203 C-38.8456977 25.75842576 -28.7684832 27.3345409 -18.44921875 27.890625 C-17.62227005 27.9389447 -16.79532135 27.9872644 -15.9433136 28.03704834 C-10.0388465 28.25784123 -6.05418316 27.34537404 0 26 C0 17.42 0 8.84 0 0 Z " fill="#212121" transform="translate(1354,332)"/>
<path d="M0 0 C3.10519215 3.30552713 5.6953125 6.08549578 5.6953125 10.8046875 C-6.45295638 19.23833642 -15.85254731 21.07343611 -30.4609375 20.68359375 C-32.34375937 20.66675891 -34.22662129 20.65397086 -36.10949707 20.64500427 C-41.00951512 20.61102188 -45.90704199 20.52296048 -50.80609131 20.42266846 C-55.82741614 20.32976235 -60.84915288 20.28931938 -65.87109375 20.24414062 C-75.6833723 20.14829415 -85.49382092 19.99517066 -95.3046875 19.8046875 C-79.50104924 3.90198707 -56.80385822 -9.93618826 -33.890625 -11.265625 C-21.12364978 -10.9184867 -9.49444423 -8.9562976 0 0 Z " fill="#010101" transform="translate(735.3046875,112.1953125)"/>
<path d="M0 0 C3.96 1.485 3.96 1.485 8 3 C8 12.24 8 21.48 8 31 C-1.95330271 35.97665136 -16.43622788 32.69824052 -27 30.9375 C-28.01463821 30.77435303 -28.01463821 30.77435303 -29.04977417 30.60791016 C-39.47244474 28.93189067 -49.76771528 26.82645426 -60.0625 24.5 C-129.54435652 8.83937433 -205.12072563 3.82630006 -276 11 C-277.30582031 11.12890625 -278.61164063 11.2578125 -279.95703125 11.390625 C-335.02380321 16.94156901 -392.78273363 30.42633255 -442.40258789 55.70288086 C-447.41386277 58.20545661 -452.52969113 60.48729563 -457.625 62.8125 C-465.98440615 66.64132613 -474.29364806 70.52905056 -482.45556641 74.76489258 C-486.8006393 77 -486.8006393 77 -489 77 C-489 77.66 -489 78.32 -489 79 C-489.88014771 79.44315552 -489.88014771 79.44315552 -490.77807617 79.89526367 C-510.83078315 90.0432844 -529.65547262 101.48530837 -548.09375 114.3203125 C-550.99806768 116.33535577 -553.93398047 118.23582209 -557 120 C-556.90234375 118.31640625 -556.90234375 118.31640625 -556 116 C-553.88961562 114.14778498 -551.84802214 112.54498583 -549.5625 110.9375 C-548.8936377 110.45853271 -548.22477539 109.97956543 -547.53564453 109.48608398 C-533.802086 99.79786118 -519.04996322 91.63491506 -504.43212891 83.37841797 C-502.24439905 82.13851405 -500.06410897 80.88684665 -497.88671875 79.62890625 C-478.63971444 68.55742627 -458.51518407 59.38577083 -438.22070312 50.43530273 C-435.28415925 49.12663525 -432.37053539 47.7768832 -429.45703125 46.41796875 C-423.38763626 43.65337233 -417.16248022 41.40198622 -410.875 39.1875 C-409.65071289 38.75518066 -408.42642578 38.32286133 -407.16503906 37.87744141 C-403.44824943 36.57072375 -399.72511474 35.28280431 -396 34 C-394.9387793 33.63438965 -393.87755859 33.2687793 -392.78417969 32.89208984 C-343.04342711 15.94191043 -289.87228766 6.94224066 -237.31640625 6.796875 C-235.74277721 6.78985546 -234.16914847 6.78276862 -232.59552002 6.77561951 C-227.58450928 6.75618402 -222.57354462 6.75118449 -217.5625 6.75 C-216.70887753 6.74955814 -215.85525505 6.74911629 -214.97576523 6.74866104 C-189.9868272 6.74187431 -165.15132551 6.93985853 -140.29095459 9.74353027 C-137.84934453 10.01686571 -135.40656621 10.27729129 -132.96337891 10.53613281 C-105.78583252 13.44065311 -79.02530145 17.86053513 -52.21020508 23.09887695 C-27.10353186 29.01900702 -27.10353186 29.01900702 -2 27 C-0.68638302 24.37276604 -0.78746091 22.27389439 -0.68359375 19.3359375 C-0.62075195 17.65371094 -0.62075195 17.65371094 -0.55664062 15.9375 C-0.49766602 14.1740625 -0.49766602 14.1740625 -0.4375 12.375 C-0.39431641 11.19164062 -0.35113281 10.00828125 -0.30664062 8.7890625 C-0.20032574 5.85949672 -0.09829358 2.92984412 0 0 Z " fill="#303030" transform="translate(1367,337)"/>
<path d="M0 0 C1.13144691 0.25126144 1.13144691 0.25126144 2.28575134 0.50759888 C13.47058885 3.05444456 13.47058885 3.05444456 18.296875 7.953125 C20.76844914 9.0224363 20.76844914 9.0224363 23.546875 9.671875 C24.61131836 9.95772461 25.67576172 10.24357422 26.77246094 10.53808594 C27.93551758 10.84004883 29.09857422 11.14201172 30.296875 11.453125 C32.84580274 12.14974715 35.39275607 12.85097955 37.9375 13.5625 C38.6091217 13.74999817 39.28074341 13.93749634 39.97271729 14.13067627 C71.23962049 22.95784286 101.88486342 34.58035313 131.796875 47.203125 C132.46439789 47.48363708 133.13192078 47.76414917 133.81967163 48.05316162 C141.28049039 51.19942255 148.63599963 54.52330618 155.8984375 58.10546875 C156.55251587 58.42473328 157.20659424 58.7439978 157.88049316 59.07293701 C164.60584577 62.44474688 171.07556323 66.62115735 175.296875 72.953125 C170.79529954 71.56608614 166.65294102 69.75876093 162.4609375 67.63671875 C161.09369379 66.9558383 159.72608132 66.27569798 158.3581543 65.59619141 C157.63751801 65.23728821 156.91688171 64.87838501 156.17440796 64.50860596 C126.37195223 49.71700087 95.73145642 36.85028063 64.296875 25.953125 C63.00083558 25.49861146 61.7049397 25.04368842 60.40917969 24.58837891 C38.65717813 16.96574697 16.64924724 10.56794632 -5.703125 4.953125 C-6.38290405 4.78232422 -7.06268311 4.61152344 -7.76306152 4.43554688 C-61.49015357 -8.98553532 -117.3204591 -15.06214499 -172.65209961 -12.40527344 C-179.34484689 -12.08495257 -186.00184731 -11.91717285 -192.703125 -12.046875 C-192.703125 -12.376875 -192.703125 -12.706875 -192.703125 -13.046875 C-127.45732968 -19.5905984 -63.91703916 -14.28387953 0 0 Z " fill="#313030" transform="translate(1158.703125,243.046875)"/>
<path d="M0 0 C0.33 0 0.66 0 1 0 C1.50632633 8.59913629 2.01070474 17.19838395 2.51279354 25.79776859 C2.74615004 29.79353683 2.98010485 33.7892679 3.21557617 37.78491211 C3.48803695 42.40988513 3.75852673 47.03497003 4.02734375 51.66015625 C4.07129713 52.41524538 4.11525051 53.17033451 4.16053581 53.94830513 C4.75685946 64.23593972 5.29446209 74.52304581 5.65611267 84.82215881 C5.95028955 92.6190174 6.84665585 100.28491148 8 108 C5.87561661 108.08078641 3.7503677 108.13909141 1.625 108.1875 C0.44164062 108.22230469 -0.74171875 108.25710938 -1.9609375 108.29296875 C-3.46527344 108.14794922 -3.46527344 108.14794922 -5 108 C-7.63777027 104.04334459 -7.37897572 100.55937753 -7.44140625 95.95703125 C-7.45771591 95.02456573 -7.47402557 94.09210022 -7.49082947 93.13137817 C-7.53294735 90.02495766 -7.55116509 86.91918014 -7.5625 83.8125 C-7.56878418 82.75008087 -7.57506836 81.68766174 -7.58154297 80.5930481 C-7.65027779 53.46275518 -3.96360146 26.79095086 0 0 Z " fill="#010101" transform="translate(449,870)"/>
<path d="M0 0 C1.21901342 3.65704025 0.68583884 4.4256074 -0.74609375 7.9140625 C-1.1630249 8.95892822 -1.57995605 10.00379395 -2.00952148 11.08032227 C-2.48075439 12.25006592 -2.9519873 13.41980957 -3.4375 14.625 C-17.51974877 50.52723598 -28.51450367 87.64564981 -38 125 C-38.22109436 125.87060059 -38.44218872 126.74120117 -38.66998291 127.63818359 C-50.36471971 173.88003438 -59.38314724 220.76302335 -66 268 C-66.33 268 -66.66 268 -67 268 C-66.49225282 253.92227866 -64.4968243 240.10911935 -62.4375 226.1875 C-62.2601532 224.97992035 -62.0828064 223.7723407 -61.90008545 222.52816772 C-56.44265374 185.50707725 -49.318514 148.97756346 -40.61676025 112.58331299 C-40.18709728 110.78366081 -39.76053419 108.9832669 -39.33636475 107.18231201 C-38.6743352 104.3784957 -38.00082172 101.57767466 -37.32421875 98.77734375 C-37.12109573 97.9110585 -36.91797272 97.04477325 -36.70869446 96.15223694 C-36.20204928 94.08504743 -35.60906075 92.03936431 -35 90 C-34.34 89.67 -33.68 89.34 -33 89 C-31.98749321 86.27366643 -31.08797407 83.57356316 -30.234375 80.796875 C-29.67537671 79.03033241 -29.1160351 77.26389843 -28.55639648 75.49755859 C-28.26223846 74.56030945 -27.96808044 73.6230603 -27.66500854 72.65740967 C-22.65684187 56.74412417 -17.34534479 40.9773177 -11.4375 25.375 C-11.14862915 24.60458374 -10.8597583 23.83416748 -10.56213379 23.04040527 C-7.5628007 15.06261649 -4.52500846 7.26701331 0 0 Z " fill="#2E2F2E" transform="translate(530,602)"/>
<path d="M0 0 C3.17954505 2.57765586 5.14277663 4.78008335 6.8359375 8.5390625 C4.8359375 10.5390625 4.8359375 10.5390625 2.05184937 10.77957153 C0.86604279 10.77513031 -0.31976379 10.77068909 -1.54150391 10.76611328 C-2.19528519 10.76640533 -2.84906647 10.76669739 -3.5226593 10.76699829 C-5.68711546 10.76560315 -7.85122886 10.7500337 -10.015625 10.734375 C-11.51492118 10.73064552 -13.0142198 10.72779824 -14.51351929 10.72579956 C-18.46242993 10.71815798 -22.41119379 10.6985051 -26.36004639 10.6763916 C-30.38844822 10.6559444 -34.41687374 10.64680026 -38.4453125 10.63671875 C-46.35162991 10.61525961 -54.25782795 10.58111745 -62.1640625 10.5390625 C-45.75987924 -2.72448776 -19.22055615 -12.97561011 0 0 Z " fill="#212121" transform="translate(720.1640625,121.4609375)"/>
<path d="M0 0 C1.39037476 -0.00101212 1.39037476 -0.00101212 2.80883789 -0.00204468 C40.44616435 0.04085257 77.48098358 4.47616693 114.4375 11.375 C115.10765137 11.49710846 115.77780273 11.61921692 116.46826172 11.74502563 C118.34584663 12.09054207 120.21992176 12.45497099 122.09375 12.8203125 C123.15400391 13.02414551 124.21425781 13.22797852 125.30664062 13.43798828 C128.02914324 14.27828558 129.17438204 15.05824106 130.9375 17.25 C124.00033635 16.52115876 117.21990941 15.17849978 110.37789917 13.83877563 C56.09340879 3.29212506 -1.02916891 -1.23532244 -56.0625 6.25 C-56.3925 6.58 -56.7225 6.91 -57.0625 7.25 C-63.36747742 8.26329994 -69.69310749 8.35273214 -76.0625 8.25 C-72.54719186 4.94154118 -68.97892631 4.56117288 -64.359375 4.1171875 C-63.22619843 3.993936 -63.22619843 3.993936 -62.07012939 3.86819458 C-59.65200386 3.60863249 -57.23243952 3.36699395 -54.8125 3.125 C-53.23165457 2.95550796 -51.65092362 2.78494464 -50.0703125 2.61328125 C-33.38202759 0.83243641 -16.78034643 0.01115011 0 0 Z " fill="#222222" transform="translate(1022.0625,224.75)"/>
<path d="M0 0 C9.57 0 19.14 0 29 0 C28.236875 2.784375 27.47375 5.56875 26.6875 8.4375 C26.33691528 9.75512329 26.33691528 9.75512329 25.97924805 11.09936523 C25.68594604 12.13105835 25.68594604 12.13105835 25.38671875 13.18359375 C25.19295654 13.89056396 24.99919434 14.59753418 24.79956055 15.32592773 C24.40377808 16.15459351 24.40377808 16.15459351 24 17 C20.50534008 18.16488664 19.22353769 17.59219757 15.96875 16.08203125 C8.80190733 12.14311176 3.67613238 7.35226476 0 0 Z " fill="#010101" transform="translate(474,429)"/>
<path d="M0 0 C0.33 0 0.66 0 1 0 C1.43524858 6.38172157 1.86140229 12.76400756 2.28173828 19.14672852 C2.4252363 21.31027421 2.57068715 23.47369143 2.71826172 25.63696289 C3.59049013 38.44448 4.23712761 51.16107659 4 64 C1.578125 63.62890625 1.578125 63.62890625 -1 63 C-8.40538039 50.78112235 -3.73384489 29.50420802 -2 16 C-1.80640579 14.43500516 -1.61369357 12.86990096 -1.421875 11.3046875 C-0.9580169 7.53512712 -0.48245102 3.76722393 0 0 Z " fill="#232323" transform="translate(450,892)"/>
<path d="M0 0 C3.17954505 2.57765586 5.14277663 4.78008335 6.8359375 8.5390625 C6.1759375 9.1990625 5.5159375 9.8590625 4.8359375 10.5390625 C3.8459375 10.5390625 2.8559375 10.5390625 1.8359375 10.5390625 C0.58928687 9.0627657 -0.65321437 7.58217397 -1.8515625 6.06640625 C-5.89003844 1.36687026 -11.82204537 -0.12320726 -17.75390625 -0.72265625 C-30.72777582 -1.22767936 -41.94356381 2.92544957 -53.04296875 9.1484375 C-56.37249467 10.6319309 -58.56386271 10.82058188 -62.1640625 10.5390625 C-46.25369708 -3.14201947 -18.80290424 -12.69365737 0 0 Z " fill="#343434" transform="translate(720.1640625,121.4609375)"/>
<path d="M0 0 C1 2 1 2 0.41381836 4.03125 C-2.1446696 10.27586266 -5.12188864 16.12727192 -8.4375 22 C-19.7774259 42.48213727 -29.81082458 63.47203206 -39 85 C-39.33 85 -39.66 85 -40 85 C-40.22453012 80.58019535 -39.7233938 77.66567458 -37.83203125 73.67578125 C-37.12046875 72.15343872 -37.12046875 72.15343872 -36.39453125 70.6003418 C-35.87246094 69.515354 -35.35039063 68.43036621 -34.8125 67.3125 C-34.27367187 66.17272705 -33.73484375 65.0329541 -33.1796875 63.85864258 C-32.03852108 61.45030046 -30.89320406 59.044493 -29.74072266 56.64160156 C-28.04945137 53.11206361 -26.38894016 49.56851394 -24.73046875 46.0234375 C-17.27365728 30.18545367 -9.03917641 14.98440653 0 0 Z " fill="#303030" transform="translate(573,502)"/>
<path d="M0 0 C5.07446031 0.56955743 9.36601288 1.68946965 14.171875 3.51953125 C14.8443074 3.77435272 15.51673981 4.02917419 16.20954895 4.29171753 C18.3931609 5.12324918 20.5718258 5.96683555 22.75 6.8125 C23.49434296 7.09912506 24.23868591 7.38575012 25.00558472 7.68106079 C35.63030536 11.77723066 46.14679974 16.085693 56.5625 20.6875 C57.70879883 21.19192627 58.85509766 21.69635254 60.03613281 22.21606445 C67.87209347 25.74418694 67.87209347 25.74418694 69 28 C67.02 27.34 65.04 26.68 63 26 C63.495 27.98 63.495 27.98 64 30 C63.01 29.67 62.02 29.34 61 29 C60.89397461 28.37432129 60.78794922 27.74864258 60.67871094 27.10400391 C60.17512983 24.72566776 60.17512983 24.72566776 57.50097656 23.60302734 C56.39206055 23.1848877 55.28314453 22.76674805 54.140625 22.3359375 C53.22746269 21.98509598 53.22746269 21.98509598 52.29585266 21.62716675 C50.28622422 20.86043831 48.26872075 20.11742393 46.25 19.375 C44.85894948 18.8508473 43.46824631 18.32577189 42.07788086 17.79980469 C28.15863711 12.56747891 14.09794412 7.72627669 0 3 C0 2.01 0 1.02 0 0 Z " fill="#212121" transform="translate(1223,259)"/>
<path d="M0 0 C0.495 0.99 0.495 0.99 1 2 C-11.87 2 -24.74 2 -38 2 C-29.01082526 -6.98917474 -10.30695964 -5.92055962 0 0 Z " fill="#2F2F2F" transform="translate(712,130)"/>
<path d="M0 0 C0.33 0 0.66 0 1 0 C1.12766455 6.69086381 0.77105912 13.16962965 0 19.8125 C-1.96884224 36.57287503 -1.96884224 36.57287503 1 53 C1.515625 53.49886719 2.03125 53.99773438 2.5625 54.51171875 C4 56 4 56 4.29296875 58.04296875 C4.1953125 60.02864583 4.09765625 62.01432292 4 64 C1.625 63.8125 1.625 63.8125 -1 63 C-8.40538039 50.78112235 -3.73384489 29.50420802 -2 16 C-1.80640579 14.43500516 -1.61369357 12.86990096 -1.421875 11.3046875 C-0.9580169 7.53512712 -0.48245102 3.76722393 0 0 Z " fill="#2E2E2E" transform="translate(450,892)"/>
<path d="M0 0 C0.33 0 0.66 0 1 0 C1.01030746 0.87252411 1.02061493 1.74504822 1.03123474 2.64401245 C1.12909436 10.85506601 1.23159221 19.06604562 1.33933926 27.27697563 C1.39457223 31.49858845 1.44799283 35.72020819 1.49731445 39.94189453 C1.54495249 44.01382714 1.59729509 48.08567426 1.65294075 52.15750504 C1.67336685 53.71325688 1.69207951 55.26903217 1.70907402 56.82482529 C1.73311244 58.99902597 1.7631676 61.17306456 1.79467773 63.34716797 C1.81022202 64.58626923 1.8257663 65.82537048 1.84178162 67.10202026 C1.80399217 69.93947513 1.80399217 69.93947513 3 72 C3.1229938 74.12235807 3.17555682 76.24911463 3.1875 78.375 C3.20167969 79.51710938 3.21585937 80.65921875 3.23046875 81.8359375 C3.00654932 84.91008555 2.441457 86.36417251 1 89 C0.5688509 82.75636476 0.14174109 76.5124707 -0.28173828 70.26831055 C-0.42615413 68.14714217 -0.57164534 66.02604671 -0.71826172 63.9050293 C-0.92963524 60.84442702 -1.13705329 57.78357751 -1.34375 54.72265625 C-1.40937134 53.78478775 -1.47499268 52.84691925 -1.54260254 51.88063049 C-1.91899595 46.23898935 -2.0605547 40.65429482 -2 35 C-1.67 35 -1.34 35 -1 35 C-0.67 23.45 -0.34 11.9 0 0 Z " fill="#8BBFEA" transform="translate(453,862)"/>
<path d="M0 0 C3.21886757 2.18182655 5.95316602 4.45641189 7.9296875 7.828125 C7.9296875 8.488125 7.9296875 9.148125 7.9296875 9.828125 C6.9396875 9.828125 5.9496875 9.828125 4.9296875 9.828125 C3.68303687 8.3518282 2.44053563 6.87123647 1.2421875 5.35546875 C-2.79628844 0.65593276 -8.72829537 -0.83414476 -14.66015625 -1.43359375 C-27.75113914 -1.94317563 -39.01808628 2.32089929 -50.2421875 8.53515625 C-53.0703125 9.828125 -53.0703125 9.828125 -56.0703125 8.828125 C-39.4857191 -0.90053751 -18.56755475 -10.50993665 0 0 Z " fill="#2C2C2C" transform="translate(717.0703125,122.171875)"/>
<path d="M0 0 C0 0.33 0 0.66 0 1 C-22.11 1 -44.22 1 -67 1 C-67 0.67 -67 0.34 -67 0 C-44.26945198 -2.1585266 -22.74618145 -1.97268233 0 0 Z " fill="#313131" transform="translate(1184,341)"/>
<path d="M0 0 C0.99 0.33 1.98 0.66 3 1 C3.08728882 4.24983 3.14048658 7.4993575 3.1875 10.75 C3.21263672 11.67039062 3.23777344 12.59078125 3.26367188 13.5390625 C3.27333984 14.42851562 3.28300781 15.31796875 3.29296875 16.234375 C3.3086792 17.05131836 3.32438965 17.86826172 3.34057617 18.70996094 C2.91859325 21.54738015 1.91235347 22.89644047 0 25 C-9.90002726 29.54286965 -23.56815811 27.05258224 -34 26 C-34 25.67 -34 25.34 -34 25 C-32.81241089 24.970271 -32.81241089 24.970271 -31.60083008 24.93994141 C-28.0043924 24.8445284 -24.40852249 24.73491409 -20.8125 24.625 C-19.56662109 24.5940625 -18.32074219 24.563125 -17.03710938 24.53125 C-15.2340332 24.47324219 -15.2340332 24.47324219 -13.39453125 24.4140625 C-11.73707886 24.36693115 -11.73707886 24.36693115 -10.04614258 24.31884766 C-6.97980583 23.99788622 -4.74204162 23.39346104 -2 22 C-0.82530556 19.65061112 -0.79965111 18.04926795 -0.68359375 15.4296875 C-0.62075195 14.08583984 -0.62075195 14.08583984 -0.55664062 12.71484375 C-0.51732422 11.77769531 -0.47800781 10.84054687 -0.4375 9.875 C-0.37272461 8.45767578 -0.37272461 8.45767578 -0.30664062 7.01171875 C-0.20040928 4.67462908 -0.09836824 2.3374317 0 0 Z " fill="#372A2A" transform="translate(1321,321)"/>
<path d="M0 0 C1.96534541 0.90153459 3.92210625 1.82180109 5.875 2.75 C7.51082031 3.51570313 7.51082031 3.51570313 9.1796875 4.296875 C12.09094947 6.0549224 13.01813372 6.8089346 14 10 C14.0777346 12.33203812 14.08967728 14.66839059 14 17 C10.59687262 15.94124926 7.98646769 14.99097846 5 13 C4.31060191 10.67328146 3.64533078 8.33932406 3 6 C2.04175747 4.63634717 1.05278825 3.29205831 0 2 C0 1.34 0 0.68 0 0 Z " fill="#2D2D2C" transform="translate(1361,321)"/>
<path d="M0 0 C0.66 0.33 1.32 0.66 2 1 C1.38253906 1.59425781 0.76507812 2.18851562 0.12890625 2.80078125 C-5.32494064 8.13841223 -10.18906099 13.60109158 -14.94921875 19.5703125 C-17.40839419 22.48384987 -19.94878069 24.73114462 -23 27 C-21.49681157 21.49188811 -17.60711703 18.0491747 -13.75 14.0625 C-13.09386719 13.37220703 -12.43773437 12.68191406 -11.76171875 11.97070312 C-7.89980021 7.9206792 -3.97236867 3.9415273 0 0 Z " fill="#2A2B2A" transform="translate(668,376)"/>
<path d="M0 0 C0.33 0 0.66 0 1 0 C1.12117188 1.29035156 1.24234375 2.58070313 1.3671875 3.91015625 C1.53612008 5.62763747 1.70540987 7.34508358 1.875 9.0625 C1.95363281 9.91005859 2.03226562 10.75761719 2.11328125 11.63085938 C2.61649406 16.64363309 3.45114096 21.20374323 5 26 C5.99 26 6.98 26 8 26 C8 27.32 8 28.64 8 30 C5.625 29.8125 5.625 29.8125 3 29 C-1.83285393 21.02579101 -0.09825142 8.99546352 0 0 Z " fill="#343434" transform="translate(446,926)"/>
<path d="M0 0 C0 0.66 0 1.32 0 2 C-3.91361969 2.86855207 -7.83127052 3.71732779 -11.75 4.5625 C-12.86117187 4.80935547 -13.97234375 5.05621094 -15.1171875 5.31054688 C-16.18710937 5.53935547 -17.25703125 5.76816406 -18.359375 6.00390625 C-19.34389648 6.21861572 -20.32841797 6.4333252 -21.34277344 6.65454102 C-23.94335061 6.99263516 -25.54291358 6.83856995 -28 6 C-27.67 5.34 -27.34 4.68 -27 4 C-25.12988281 3.51342773 -25.12988281 3.51342773 -22.703125 3.18359375 C-21.8265625 3.05919922 -20.95 2.93480469 -20.046875 2.80664062 C-19.12390625 2.68482422 -18.2009375 2.56300781 -17.25 2.4375 C-15.44257184 2.18718147 -13.63527565 1.93590791 -11.828125 1.68359375 C-11.0227832 1.57587646 -10.21744141 1.46815918 -9.38769531 1.35717773 C-7.69196884 1.10351231 -6.00364444 0.79798446 -4.32324219 0.45727539 C-2 0 -2 0 0 0 Z " fill="#282828" transform="translate(926,235)"/>
<path d="M0 0 C5.55010225 1.44785276 5.55010225 1.44785276 7.375 3.6875 C8.22470496 6.83140837 8.12455824 9.76148579 8 13 C6.10546875 12.80859375 6.10546875 12.80859375 4 12 C2.98828125 9.78515625 2.98828125 9.78515625 2.3125 7.0625 C1.41197683 3.43564354 1.41197683 3.43564354 0 0 Z " fill="#343434" transform="translate(1367,325)"/>
<path d="M0 0 C0.33 0.66 0.66 1.32 1 2 C-0.20850753 5.07620099 -1.52221785 8.0444357 -3 11 C-2.34 11.33 -1.68 11.66 -1 12 C-3.31 13.65 -5.62 15.3 -8 17 C-8.33 16.34 -8.66 15.68 -9 15 C-7.59104764 12.38211357 -6.13756909 9.88954328 -4.5625 7.375 C-3.9118457 6.31539063 -3.9118457 6.31539063 -3.24804688 5.234375 C-2.17251868 3.48516432 -1.08716275 1.74200346 0 0 Z " fill="#2F302F" transform="translate(583,485)"/>
<path d="M0 0 C4.23429756 1.31061591 8.07407404 2.94356259 12 5 C12 6.65 12 8.3 12 10 C8.625 9.3125 8.625 9.3125 5 8 C3.75 5.5625 3.75 5.5625 3 3 C1.47992158 1.22722741 1.47992158 1.22722741 0 0 Z " fill="#272727" transform="translate(1294,287)"/>
<path d="M0 0 C0.33 0 0.66 0 1 0 C2.70159453 19.00455581 2.70159453 19.00455581 -1 27 C-1.33 27 -1.66 27 -2 27 C-1.34 18.09 -0.68 9.18 0 0 Z " fill="#E2EF9B" transform="translate(457,919)"/>
<path d="M0 0 C0 0.66 0 1.32 0 2 C-1.72807318 2.33895656 -3.45751974 2.67091525 -5.1875 3 C-6.63189453 3.2784375 -6.63189453 3.2784375 -8.10546875 3.5625 C-10.7934206 3.96877612 -13.28771019 4.07933572 -16 4 C-15 2 -15 2 -13.14453125 1.3671875 C-8.68502511 0.4259852 -4.58835504 -0.23530026 0 0 Z " fill="#222222" transform="translate(944,232)"/>
<path d="M0 0 C2 2 2 2 2.265625 4.8984375 C2.26046875 6.04570313 2.2553125 7.19296875 2.25 8.375 C2.25515625 9.51710938 2.2603125 10.65921875 2.265625 11.8359375 C2.01510533 14.82006883 1.55829924 16.48940678 0 19 C-0.19425873 16.20865148 -0.38069517 13.41716313 -0.5625 10.625 C-0.61857422 9.8309375 -0.67464844 9.036875 -0.73242188 8.21875 C-1.11328125 2.2265625 -1.11328125 2.2265625 0 0 Z " fill="#83BAE2" transform="translate(454,932)"/>
<path d="M0 0 C0.66 0.33 1.32 0.66 2 1 C-3.445 7.93 -3.445 7.93 -9 15 C-9.33 14.01 -9.66 13.02 -10 12 C-8.42128179 9.79569625 -6.85238363 7.83057597 -5.0625 5.8125 C-4.34030273 4.97428711 -4.34030273 4.97428711 -3.60351562 4.11914062 C-2.41142402 2.73820283 -1.20685625 1.36805321 0 0 Z " fill="#2A2A2A" transform="translate(631,419)"/>
<path d="M0 0 C0.33 0.66 0.66 1.32 1 2 C-0.14453125 4.3828125 -0.14453125 4.3828125 -1.8125 7.125 C-2.35519531 8.03507812 -2.89789062 8.94515625 -3.45703125 9.8828125 C-3.96621094 10.58148438 -4.47539063 11.28015625 -5 12 C-5.66 12 -6.32 12 -7 12 C-5.44298069 7.32894208 -2.91552627 3.91294315 0 0 Z " fill="#232323" transform="translate(587,484)"/>
<path d="M0 0 C5.70709064 0.46588495 9.15939723 1.93757784 14 5 C10.08428299 6.305239 8.96107003 5.32239848 5.3125 3.5625 C4.31863281 3.08941406 3.32476563 2.61632812 2.30078125 2.12890625 C1.54152344 1.75636719 0.78226563 1.38382812 0 1 C0 0.67 0 0.34 0 0 Z " fill="#E6EE96" transform="translate(1368,337)"/>
<path d="M0 0 C3.77545388 1.09068668 6.47043472 1.9083091 9 5 C7.02 4.34 5.04 3.68 3 3 C3.33 4.32 3.66 5.64 4 7 C3.01 6.67 2.02 6.34 1 6 C0.67 4.02 0.34 2.04 0 0 Z " fill="#252525" transform="translate(1283,282)"/>
<path d="M0 0 C0.33 0 0.66 0 1 0 C1.05399736 1.45792884 1.09279177 2.91642712 1.125 4.375 C1.14820313 5.18710937 1.17140625 5.99921875 1.1953125 6.8359375 C1 9 1 9 -1 11 C-1.66 10.67 -2.32 10.34 -3 10 C-2.01 6.7 -1.02 3.4 0 0 Z " fill="#1D1D1D" transform="translate(527,593)"/>
<path d="M0 0 C0.33 0.99 0.66 1.98 1 3 C-4.75 6 -4.75 6 -7 6 C-6 3 -6 3 -2.9375 1.3125 C-1.968125 0.879375 -0.99875 0.44625 0 0 Z " fill="#363E36" transform="translate(805,273)"/>
<path d="M0 0 C3.66881155 0.70554068 6.70450534 2.27735506 10 4 C8.375 4.6875 8.375 4.6875 6 5 C2.75 3.5625 2.75 3.5625 0 2 C0 1.34 0 0.68 0 0 Z " fill="#2B2B2B" transform="translate(1116,235)"/>
<path d="M0 0 C1.25541557 3.76624671 0.37061958 5.37188934 -1 9 C-1.99 8.67 -2.98 8.34 -4 8 C-4 7.34 -4 6.68 -4 6 C-3.34 6 -2.68 6 -2 6 C-1.34 4.02 -0.68 2.04 0 0 Z " fill="#373735" transform="translate(479,776)"/>
<path d="M0 0 C0.33 0.99 0.66 1.98 1 3 C-0.98 3.99 -2.96 4.98 -5 6 C-5.66 5.34 -6.32 4.68 -7 4 C-4.69 2.68 -2.38 1.36 0 0 Z " fill="#383B36" transform="translate(772,291)"/>
</svg>
